<svg xmlns="http://www.w3.org/2000/svg" width="19.841" height="16.139" viewBox="0 0 19.841 16.139"><g transform="translate(-165 -120)"><path d="M13.122,8.014a.675.675,0,1,1,0-1.351h1.624A2.026,2.026,0,0,0,16.879,4.5V1.351h-2.42v.934a2,2,0,0,1-2,2H7.466a2,2,0,0,1-2-2V1.351H2.99V4.5A2.027,2.027,0,0,0,5.123,6.663H6.747a.675.675,0,1,1,0,1.351H5.123A3.355,3.355,0,0,1,1.639,4.5V1.351H.675A.675.675,0,0,1,.675,0H19.166a.675.675,0,0,1,0,1.351H18.23V4.5a3.355,3.355,0,0,1-3.484,3.514Z" transform="translate(165 128.126)" fill="#8ac142"/><g transform="translate(166.64 120)"><path d="M4453.008,2497.241a.676.676,0,0,1-.676-.675v-1.7a3.355,3.355,0,0,1,3.484-3.514h1.625a.675.675,0,1,1,0,1.351h-1.625a2.026,2.026,0,0,0-2.133,2.163v1.7A.675.675,0,0,1,4453.008,2497.241Z" transform="translate(-4452.332 -2491.351)" fill="#acd971"/><path d="M4457.44,2497.241a.676.676,0,0,1-.676-.675v-1.7a2.026,2.026,0,0,0-2.133-2.163h-1.625a.675.675,0,0,1,0-1.351h1.625a3.355,3.355,0,0,1,3.484,3.514v1.7A.675.675,0,0,1,4457.44,2497.241Z" transform="translate(-4441.525 -2491.351)" fill="#acd971"/><path d="M2,0H6.992a2,2,0,0,1,2,2V3.588a0,0,0,0,1,0,0H0a0,0,0,0,1,0,0V2A2,2,0,0,1,2,0Z" transform="translate(3.827 3.208)" fill="#acd971"/></g></g></svg>