<svg xmlns="http://www.w3.org/2000/svg" width="16.907" height="17.288" viewBox="0 0 16.907 17.288">
  <g id="Time-in_icon" data-name="Time-in icon" style="isolation: isolate">
    <g id="Group_155192" data-name="Group 155192" transform="translate(4.26 4.64)">
      <path id="Ellipse_86_-_Outline" data-name="Ellipse 86 - Outline" d="M6.324,1.646A4.677,4.677,0,1,0,11,6.324,4.683,4.683,0,0,0,6.324,1.646M6.324,0A6.324,6.324,0,1,1,0,6.324,6.324,6.324,0,0,1,6.324,0Z" transform="translate(0 0)" fill="#68b657"/>
      <path id="Path_359717" data-name="Path 359717" d="M350.776,24.887a.821.821,0,0,1-.582-.241l-1.454-1.454a.823.823,0,0,1-.241-.582V19.8a.823.823,0,1,1,1.646,0v2.47l1.213,1.213a.823.823,0,0,1-.582,1.405Z" transform="translate(-342.998 -16.143)" fill="#68b657"/>
    </g>
    <path id="clock_out_icon_135757" d="M17.61,6.935l1.482-1.474-3.3-3.293L16.959,1l3.293,3.293,1.474-1.474V6.935" transform="translate(-15.79 -1)" fill="#68b657"/>
  </g>
</svg>
