<?xml version="1.0" standalone="no"?>
<!DOCTYPE svg PUBLIC "-//W3C//DTD SVG 1.1//EN" "http://www.w3.org/Graphics/SVG/1.1/DTD/svg11.dtd" >
<svg xmlns="http://www.w3.org/2000/svg">
<metadata>Generated by IcoMoon</metadata>
<defs>
<font id="icomoon" horiz-adv-x="1024">
<font-face units-per-em="1024" ascent="960" descent="-64" />
<missing-glyph horiz-adv-x="1024" />
<glyph unicode="&#x20;" horiz-adv-x="512" d="" />
<glyph unicode="&#xe900;" glyph-name="dashboard" d="M389.363 407.073h-237.809c-0.010 0-0.022 0-0.035 0-46.657 0-84.769 36.578-87.226 82.62l-0.009 0.218v323.152c2.488 46.266 40.609 82.837 87.27 82.84h237.81c46.662-0.003 84.782-36.574 87.261-82.618l0.009-0.22v-323.152c-2.488-46.266-40.609-82.837-87.27-82.84v0zM201.897 823.28c-30.83-0.023-55.818-25.011-55.841-55.84v-234.406c0-29.457 23.881-53.338 53.338-53.338h142.087c29.457 0 53.338 23.881 53.338 53.338v0 236.864c0 29.457-23.881 53.338-53.338 53.338v0zM156.436 0.302c-52.017 4.86-92.409 48.3-92.409 101.175 0 2.326 0.077 4.634 0.231 6.921l-0.017-0.31v120.095c-0.147 2.038-0.23 4.416-0.23 6.814 0 52.879 40.402 96.321 92.021 101.145l0.403 0.031h228.003c52.022-4.853 92.423-48.296 92.423-101.176 0-2.398-0.083-4.777-0.246-7.132l0.018 0.317v-120.095c0.147-2.038 0.23-4.416 0.23-6.814 0-52.879-40.402-96.321-92.021-101.145l-0.403-0.031zM189.711 237.661c-24.101-0.023-43.633-19.555-43.656-43.654v-56.624c0.023-21.178 17.185-38.34 38.36-38.363h172.082c21.178 0.023 38.34 17.185 38.363 38.36v61.916c-0.023 21.178-17.185 38.34-38.36 38.363h-0.003zM639.562 559.703c-52.022 4.853-92.423 48.296-92.423 101.176 0 2.398 0.083 4.777 0.246 7.132l-0.018-0.317v120.095c-0.147 2.038-0.23 4.416-0.23 6.814 0 52.879 40.402 96.321 92.021 101.145l0.403 0.031h228.003c52.022-4.853 92.423-48.296 92.423-101.176 0-2.398-0.083-4.777-0.246-7.132l0.018 0.317v-120.095c0.147-2.038 0.23-4.416 0.23-6.814 0-52.879-40.402-96.321-92.021-101.145l-0.403-0.031zM661.186 797.062c-17.674 0-32.004-14.328-32.004-32.004v0-74.634c0-17.674 14.328-32.004 32.004-32.004v0h182.871c18.707 0.023 33.866 15.182 33.891 33.888v70.861c-0.023 18.707-15.182 33.866-33.888 33.891h-0.003zM872.489 0.138h-237.809c-46.662 0.003-84.782 36.574-87.261 82.618l-0.009 0.22v323.356c2.488 46.266 40.609 82.837 87.27 82.84h237.891c46.662-0.003 84.782-36.574 87.261-82.618l0.009-0.22v-323.111c-2.488-46.266-40.609-82.837-87.27-82.84v0zM688.429 416.592c-0.012 0-0.027 0-0.042 0-32.676 0-59.165-26.489-59.165-59.165 0-0.116 0-0.231 0.001-0.346v0.018-227.346c0.023-31.533 25.579-57.090 57.112-57.115h134.54c31.533 0.023 57.090 25.579 57.115 57.112v229.36c-0.047 31.524-25.589 57.067-57.11 57.115h-0.005z" />
<glyph unicode="&#xe901;" glyph-name="appointment" d="M243.2 806.4h537.6c74.227 0 134.4-60.173 134.4-134.4v0-537.6c0-74.227-60.173-134.4-134.4-134.4v0h-537.6c-74.227 0-134.4 60.173-134.4 134.4v0 537.6c0 74.227 60.173 134.4 134.4 134.4v0zM780.8 89.6c24.743 0 44.8 20.057 44.8 44.8v0 537.6c0 24.743-20.057 44.8-44.8 44.8v0h-537.6c-24.743 0-44.8-20.057-44.8-44.8v0-537.6c0-24.743 20.057-44.8 44.8-44.8v0zM691.2 627.2c-24.743 0-44.8 20.057-44.8 44.8v0 179.2c0 24.743 20.057 44.8 44.8 44.8v0c24.743 0 44.8-20.057 44.8-44.8v0-179.2c0-24.743-20.057-44.8-44.8-44.8v0zM332.8 627.2c-24.743 0-44.8 20.057-44.8 44.8v0 179.2c0 24.743 20.057 44.8 44.8 44.8v0c24.743 0 44.8-20.057 44.8-44.8v0-179.2c0-24.743-20.057-44.8-44.8-44.8v0zM870.4 448h-716.8c-24.743 0-44.8 20.057-44.8 44.8v0c0 24.743 20.057 44.8 44.8 44.8v0h716.8c24.743 0 44.8-20.057 44.8-44.8v0c0-24.743-20.057-44.8-44.8-44.8v0zM601.6 224h-179.2c-24.743 0-44.8 20.057-44.8 44.8v0c0 24.743 20.057 44.8 44.8 44.8v0h179.2c24.743 0 44.8-20.057 44.8-44.8v0c0-24.743-20.057-44.8-44.8-44.8v0z" />
<glyph unicode="&#xe902;" glyph-name="master" d="M467.196 44.801v0c0-24.744 20.058-44.803 44.803-44.803h134.407c24.744 0 44.803 20.058 44.803 44.803s-20.058 44.803-44.803 44.803h-89.605v89.605h89.605c24.744 0 44.803 20.058 44.803 44.803s-20.058 44.803-44.803 44.803h-89.605v183.689l1.459 0.257c101.521 21.315 177.751 111.37 177.751 219.23 0 123.718-100.293 224.011-224.011 224.011s-224.011-100.293-224.011-224.011c0-107.859 76.228-197.912 179.208-219.486zM511.999 806.439c74.231 0 134.407-60.176 134.407-134.407s-60.176-134.407-134.407-134.407c-74.231 0-134.407 60.176-134.407 134.407v0c0 74.231 60.176 134.407 134.407 134.407v0z" />
<glyph unicode="&#xe903;" glyph-name="configure" d="M670.83 57.597l-306.755 358.033c-16.959-4.187-36.428-6.588-56.458-6.588-18.046 0-35.637 1.95-52.573 5.649l1.621-0.297c-47.803 10.425-89.080 33.69-121.327 65.973l-0.002 0.002c-44.015 44.177-71.227 105.121-71.227 172.421 0 37.584 8.488 73.187 23.651 104.996l-0.634-1.477c6.365 13.441 19.818 22.573 35.405 22.573 0.059 0 0.119 0 0.177 0h-0.009c10.748-0.049 20.461-4.451 27.467-11.534l108.238-108.283 42.534 42.534-108.234 108.28c-7.12 6.999-11.533 16.735-11.533 27.5 0 2.467 0.231 4.879 0.674 7.217l-0.037-0.24c2.183 12.846 10.46 23.378 21.694 28.652l0.236 0.1c30.049 14.451 65.331 22.893 102.585 22.893 0.281 0 0.56-0.001 0.84-0.002h-0.043c67.337-0.088 128.311-27.264 172.624-71.211l-0.017 0.017c44.054-44.253 71.29-105.283 71.29-172.672 0-19.956-2.387-39.352-6.894-57.922l0.343 1.673 358.079-306.755c33.609-29.021 55.307-71.044 57.22-118.167l0.010-0.324c0.075-1.847 0.117-4.016 0.117-6.195 0-45.404-18.359-86.52-48.057-116.33l0.006 0.006c-29.575-29.725-70.512-48.12-115.745-48.12-0.161 0-0.319 0-0.479 0.001h0.024c-49.866 0.010-94.535 22.262-124.622 57.376l-0.186 0.221zM406.976 485.955l323.466-377.308c15.791-18.431 39.091-30.035 65.101-30.035 0.018 0 0.035 0 0.053 0h-0.003c0.077 0 0.168 0 0.259 0 23.653 0 45.064 9.609 60.541 25.135l0.002 0.002c15.575 15.381 25.219 36.733 25.219 60.339 0 1.323-0.031 2.638-0.091 3.945l0.007-0.186c-0.971 24.816-12.333 46.8-29.829 61.851l-0.113 0.094-377.354 323.421c-8.365 7.26-13.622 17.909-13.622 29.785 0 4.768 0.847 9.341 2.401 13.572l-0.088-0.273c6.179 16.686 9.752 35.96 9.752 56.070 0 45.666-18.433 87.028-48.265 117.048l0.007-0.007c-30.157 29.869-71.667 48.326-117.486 48.326-3.768 0-7.507-0.125-11.213-0.371l0.503 0.026 87.997-87.997c7.071-7.040 11.446-16.783 11.446-27.547 0-0.070 0-0.139-0.001-0.209v0.011c0-10.741-4.376-20.458-11.445-27.468l-97.98-98.027c-7.095-7.073-16.887-11.446-27.699-11.446-0.017 0-0.034 0-0.049 0h0.003c-0.014 0-0.031 0-0.048 0-10.813 0-20.601 4.373-27.699 11.447l-88.042 87.997c-0.223-3.234-0.351-7.010-0.351-10.815 0-45.787 18.46-87.264 48.345-117.393l-0.011 0.011c30.073-29.808 71.459-48.244 117.15-48.302h0.012c0.034 0 0.073 0 0.112 0 20.032 0 39.225 3.591 56.972 10.167l-1.135-0.368c3.885 1.479 8.378 2.336 13.069 2.336 0.090 0 0.179 0 0.269-0.001h-0.014c11.935-0.007 22.622-5.351 29.806-13.772l0.047-0.054z" />
<glyph unicode="&#xe904;" glyph-name="reports" d="M825.6 582.4h-179.2c-49.484 0-89.6 40.116-89.6 89.6v0 179.2c0 24.743 20.057 44.8 44.8 44.8s44.8-20.057 44.8-44.8v0-179.2h179.2c24.743 0 44.8-20.057 44.8-44.8s-20.057-44.8-44.8-44.8v0zM736 0h-448c-74.227 0-134.4 60.173-134.4 134.4v0 627.2c0 74.227 60.173 134.4 134.4 134.4v0h313.6c12.369-0.003 23.569-5.019 31.674-13.125l224-224c8.108-8.105 13.124-19.303 13.126-31.674v-492.801c0-74.227-60.173-134.4-134.4-134.4v0zM288 806.4c-24.743 0-44.8-20.057-44.8-44.8v0-627.2c0-24.743 20.057-44.8 44.8-44.8v0h448c24.743 0 44.8 20.057 44.8 44.8v0 474.253l-197.747 197.747zM422.4 627.2h-44.8c-24.743 0-44.8 20.057-44.8 44.8v0c0 24.743 20.057 44.8 44.8 44.8v0h44.8c24.743 0 44.8-20.057 44.8-44.8v0c0-24.743-20.057-44.8-44.8-44.8v0zM646.4 358.4h-268.8c-24.743 0-44.8 20.057-44.8 44.8v0c0 24.743 20.057 44.8 44.8 44.8v0h268.8c24.743 0 44.8-20.057 44.8-44.8v0c0-24.743-20.057-44.8-44.8-44.8v0zM646.4 179.2h-89.6c-24.743 0-44.8 20.057-44.8 44.8v0c0 24.743 20.057 44.8 44.8 44.8v0h89.6c24.743 0 44.8-20.057 44.8-44.8v0c0-24.743-20.057-44.8-44.8-44.8v0z" />
<glyph unicode="&#xe905;" glyph-name="setting" d="M512.003 895.989c0.43 0.006 0.94 0.009 1.449 0.009 56.829 0 104.447-39.433 116.984-92.431l0.162-0.816c3.552-14.352 16.319-24.824 31.532-24.824 6.251 0 12.089 1.768 17.041 4.831l-0.139-0.079c18.178 11.505 40.307 18.335 64.029 18.335 45.789 0 85.637-25.44 106.18-62.957l0.315-0.63c9.732-16.947 15.472-37.26 15.472-58.911 0-23.564-6.797-45.54-18.54-64.074l0.29 0.491c-2.972-4.807-4.733-10.633-4.733-16.872 0-15.19 10.44-27.941 24.536-31.469l0.223-0.049c53.868-13.46 93.142-61.431 93.142-118.574s-39.273-105.117-92.3-118.396l-0.842-0.178c-14.352-3.552-24.824-16.319-24.824-31.532 0-6.251 1.768-12.089 4.831-17.041l-0.079 0.139c11.456-18.042 18.256-40.019 18.256-63.582 0-21.653-5.743-41.965-15.787-59.497l0.309 0.585c-20.853-38.166-60.711-63.622-106.513-63.622-23.716 0-45.84 6.825-64.51 18.617l0.497-0.294c-4.807 2.972-10.633 4.733-16.872 4.733-15.19 0-27.941-10.44-31.469-24.536l-0.049-0.223c-13.46-53.868-61.431-93.142-118.574-93.142s-105.117 39.273-118.396 92.3l-0.178 0.842c-3.552 14.352-16.319 24.824-31.532 24.824-6.251 0-12.089-1.768-17.041-4.831l0.139 0.079c-18.185-11.518-40.327-18.356-64.064-18.356-45.798 0-85.651 25.449-106.19 62.979l-0.315 0.63c-9.732 16.947-15.472 37.26-15.472 58.911 0 23.564 6.797 45.54 18.54 64.074l-0.29-0.491c2.972 4.807 4.733 10.633 4.733 16.872 0 15.19-10.44 27.941-24.536 31.469l-0.223 0.049c-53.868 13.46-93.142 61.431-93.142 118.574s39.273 105.117 92.3 118.396l0.842 0.178c14.352 3.552 24.824 16.319 24.824 31.532 0 6.251-1.768 12.089-4.831 17.041l0.079-0.139c-11.456 18.042-18.256 40.019-18.256 63.582 0 21.653 5.743 41.965 15.787 59.497l-0.309-0.585c20.853 38.166 60.711 63.622 106.513 63.622 23.716 0 45.84-6.825 64.51-18.617l-0.497 0.294c4.758-3.006 10.549-4.792 16.756-4.795h0.001c0.006 0 0.012 0 0.020 0 15.245 0 28.041 10.488 31.565 24.643l0.048 0.224c12.717 53.791 60.324 93.202 117.136 93.202 0.513 0 1.027-0.004 1.538-0.009l-0.077 0.001zM662.097 688.32c-0.034 0-0.073 0-0.112 0-57.211 0-105.229 39.366-118.443 92.488l-0.176 0.84c-3.605 14.281-16.336 24.682-31.498 24.682s-27.894-10.401-31.45-24.459l-0.049-0.224c-13.353-53.935-61.333-93.289-118.504-93.289-23.48 0-45.409 6.638-64.015 18.138l0.525-0.301c-4.83 3.146-10.714 5.065-17.036 5.197l-0.035 0.001c-12.389-0.489-23.027-7.534-28.586-17.745l-0.090-0.178c-2.533-4.312-4.029-9.499-4.029-15.033 0-6.335 1.959-12.212 5.304-17.058l-0.066 0.102c11.205-18.096 17.844-40.043 17.844-63.54 0-57.233-39.394-105.264-92.546-118.458l-0.84-0.176c-14.281-3.605-24.682-16.336-24.682-31.498s10.401-27.894 24.459-31.45l0.224-0.049c53.907-13.43 93.22-61.421 93.22-118.594 0-23.477-6.629-45.406-18.117-64.016l0.301 0.525c-3.26-4.739-5.206-10.605-5.206-16.923 0-5.549 1.501-10.745 4.119-15.209l-0.077 0.142c5.649-10.388 16.286-17.434 28.609-17.92l0.065-0.002c6.377 0.14 12.274 2.076 17.241 5.319l-0.126-0.077c18.135 11.266 40.14 17.946 63.706 17.946 57.187 0 105.189-39.333 118.427-92.421l0.177-0.841c3.605-14.281 16.336-24.682 31.498-24.682s27.894 10.401 31.45 24.459l0.049 0.224c13.43 53.907 61.421 93.22 118.594 93.22 23.477 0 45.406-6.629 64.016-18.117l-0.525 0.301c4.84-3.165 10.739-5.101 17.078-5.242l0.036-0.001c12.389 0.489 23.027 7.534 28.586 17.745l0.090 0.178c2.545 4.321 4.050 9.519 4.050 15.070 0 6.32-1.95 12.183-5.281 17.022l0.066-0.102c-11.249 18.123-17.915 40.111-17.915 63.656 0 57.194 39.34 105.198 92.435 118.431l0.84 0.177c14.281 3.605 24.682 16.336 24.682 31.498s-10.401 27.894-24.459 31.45l-0.224 0.049c-53.907 13.43-93.22 61.421-93.22 118.594 0 23.477 6.629 45.406 18.117 64.016l-0.301-0.525c3.26 4.739 5.206 10.605 5.206 16.923 0 5.549-1.501 10.745-4.119 15.209l0.077-0.142c-5.649 10.388-16.286 17.434-28.609 17.92l-0.065 0.002c-6.377-0.14-12.274-2.076-17.241-5.319l0.126 0.077c-18.095-11.268-40.048-17.968-63.566-18.011h-0.012zM512.003 627.163c98.979 0 179.218-80.239 179.218-179.218s-80.239-179.218-179.218-179.218c-98.979 0-179.218 80.239-179.218 179.218v0c0 98.979 80.239 179.218 179.218 179.218v0zM512.003 358.336c49.49 0 89.608 40.119 89.608 89.608s-40.119 89.608-89.608 89.608c-49.49 0-89.608-40.119-89.608-89.608v0c0-49.49 40.119-89.608 89.608-89.608v0z" />
<glyph unicode="&#xe906;" glyph-name="visitors" d="M377.599 896.001c123.711 0 224-100.289 224-224s-100.289-224-224-224c-123.711 0-224 100.289-224 224v0c0.153 123.65 100.349 223.847 223.985 224h0.015zM377.599 537.601c74.227 0 134.4 60.173 134.4 134.4s-60.173 134.4-134.4 134.4c-74.227 0-134.4-60.173-134.4-134.4v0c0-74.227 60.173-134.4 134.4-134.4v0zM646.399 0.001c-24.743 0-44.8 20.057-44.8 44.8v0 89.6c0 74.227-60.173 134.4-134.4 134.4v0h-179.2c-74.227 0-134.4-60.173-134.4-134.4v0-89.6c0-24.743-20.057-44.8-44.8-44.8s-44.8 20.057-44.8 44.8v0 89.6c0.153 123.65 100.349 223.847 223.985 224h179.215c123.65-0.153 223.847-100.349 224-223.985v-89.615c0-24.743-20.057-44.8-44.8-44.8v0zM691.199 453.377c-24.742 0.002-44.797 20.058-44.797 44.8 0 20.811 14.189 38.307 33.42 43.342l0.312 0.069c58.541 15.378 101.019 67.823 101.019 130.189s-42.48 114.811-100.083 129.98l-0.936 0.21c-19.482 5.152-33.611 22.62-33.611 43.389 0 24.748 20.063 44.811 44.811 44.811 3.981 0 7.839-0.519 11.513-1.492l-0.313 0.071c97.627-25.587 168.483-113.025 168.483-217.011s-70.858-191.424-166.923-216.663l-1.561-0.348c-3.271-0.855-7.029-1.346-10.899-1.346-0.153 0-0.305 0.001-0.458 0.003h0.023zM915.199 0.001c-24.743 0-44.8 20.057-44.8 44.8v0 89.6c-0.441 61.907-42.671 113.829-99.862 128.991l-0.938 0.212c-19.953 4.809-34.546 22.505-34.546 43.611 0 24.743 20.057 44.8 44.8 44.8 4.325 0 8.506-0.612 12.463-1.757l-0.316 0.077c96.986-25.652 167.419-112.355 168-215.601v-0.066s0 0 0-0.269v-89.6c0-24.743-20.057-44.8-44.8-44.8v0z" />
<glyph unicode="&#xe907;" glyph-name="bell-icon" d="M332.854 179.304h-179.173c-20.69 0.005-38.101 14.036-43.243 33.103l-0.072 0.314c-0.937 3.421-1.477 7.349-1.477 11.403 0 16.6 9.030 31.092 22.447 38.829l0.217 0.116c35.62 20.556 60.686 55.991 66.788 97.587l0.089 0.734v131.468c-0.019 0.315-0.029 0.682-0.029 1.053s0.010 0.738 0.032 1.103l-0.003-0.050c5.937 126.831 77.082 235.805 180.457 294.712l1.761 0.924c13.878 60.725 67.409 105.355 131.374 105.399h0.005c63.945-0.103 117.428-44.762 131.072-104.585l0.174-0.903c105.155-59.814 176.309-168.796 182.189-294.841l0.030-0.795c0.019-0.315 0.029-0.682 0.029-1.053s-0.010-0.738-0.032-1.103l0.003 0.050v-131.513c6.191-42.33 31.256-77.765 66.226-97.974l0.651-0.347c13.677-7.843 22.742-22.357 22.742-38.988 0-4.038-0.535-7.951-1.536-11.672l0.072 0.314c-5.214-19.381-22.625-33.411-43.315-33.415h-179.174c0-98.955-80.218-179.173-179.173-179.173v0c-98.935 0.025-179.128 80.234-179.128 179.173 0 0.048 0 0.094 0 0.142v-0.007zM422.44 179.304c0-49.478 40.109-89.587 89.587-89.587v0c49.478 0 89.587 40.109 89.587 89.587v0zM467.235 762.333c0.014-0.381 0.021-0.828 0.021-1.277 0-1.968-0.155-3.9-0.453-5.786l0.027 0.208c-0.885-6.733-3.153-12.797-6.514-18.099l0.107 0.182c-3.482-5.559-7.981-10.157-13.273-13.649l-0.165-0.103c-1.715-1.152-3.685-2.244-5.747-3.168l-0.256-0.103c-87.314-42.191-147.587-127.987-152.675-228.343l-0.026-0.641v-133.080c-0.017-1.944-0.147-3.84-0.384-5.703l0.024 0.237c-3.936-31.456-13.825-59.918-28.525-85.239l0.576 1.073h504.596c-14.185 24.24-24.105 52.703-27.927 83.069l-0.113 1.099c-0.261 1.574-0.455 3.455-0.535 5.368l-0.004 0.097v133.259c-5.159 101.291-65.779 187.285-151.896 228.645l-1.61 0.696c-15.239 7.318-25.589 22.598-25.668 40.303v0.010c0 24.739-20.055 44.793-44.793 44.793v0c-0.003 0-0.007 0-0.009 0-24.409 0-44.256-19.523-44.782-43.804l-0.001-0.049z" />
<glyph unicode="&#xe908;" glyph-name="delete" d="M288 671.999v-537.599c0-24.743 20.058-44.8 44.8-44.8v0h358.399c24.743 0 44.8 20.058 44.8 44.8v0 537.599zM243.2 761.599h537.599c24.743 0 44.8-20.058 44.8-44.8v0-582.399c0-74.226-60.173-134.4-134.4-134.4v0h-358.399c-74.226 0-134.4 60.173-134.4 134.4v0 582.399c0 24.743 20.058 44.8 44.8 44.8v0zM153.6 671.999c-24.743 0-44.8 20.058-44.8 44.8s20.058 44.8 44.8 44.8v0h716.799c24.743 0 44.8-20.058 44.8-44.8s-20.058-44.8-44.8-44.8v0zM422.4 806.399c-24.743 0-44.8 20.058-44.8 44.8s20.058 44.8 44.8 44.8v0h179.2c24.743 0 44.8-20.058 44.8-44.8s-20.058-44.8-44.8-44.8v0zM377.599 537.599c0 24.743 20.058 44.8 44.8 44.8s44.8-20.058 44.8-44.8v0-268.799c0-24.743-20.058-44.8-44.8-44.8s-44.8 20.058-44.8 44.8v0zM556.799 537.599c0 24.743 20.058 44.8 44.8 44.8s44.8-20.058 44.8-44.8v0-268.799c0-24.743-20.058-44.8-44.8-44.8s-44.8 20.058-44.8 44.8v0z" />
<glyph unicode="&#xe909;" glyph-name="edit" d="M106.036 0.090v0c-2.884 0.001-5.696 0.301-8.409 0.875l0.265-0.047h-0.644c-19.085 4.266-33.136 21.061-33.136 41.137 0 3.113 0.338 6.146 0.979 9.065l-0.051-0.279 52.316 243.864c2.219 9.933 7.696 18.333 15.229 24.225l0.092 0.070 425.614 425.614c1.177 1.519 2.366 2.87 3.635 4.142l-0.001-0.001c1.298 1.307 2.681 2.527 4.137 3.655l0.097 0.073 87.423 87.423c1.227 1.707 2.481 3.21 3.831 4.614l-0.013-0.014c31.857 31.815 75.845 51.491 124.429 51.491 0.385 0 0.768-0.001 1.151-0.004h-0.060c0.313 0.002 0.683 0.004 1.054 0.004 48.596 0 92.596-19.675 124.47-51.493l-0.002 0.002c31.789-31.873 51.445-75.861 51.445-124.439 0-0.396-0.001-0.792-0.005-1.187v0.062c0.002-0.327 0.004-0.713 0.004-1.099 0-48.573-19.656-92.555-51.449-124.425l0.004 0.004c-1.393-1.337-2.894-2.589-4.478-3.734l-0.123-0.085-87.423-87.423c-1.228-1.587-2.478-2.998-3.815-4.321l-0.004-0.004c-1.393-1.333-2.894-2.584-4.476-3.733l-0.125-0.087-425.291-425.382c-5.97-7.659-14.41-13.147-24.109-15.271l-0.277-0.050-243.312-52.225c-2.759-0.685-5.929-1.086-9.191-1.104h-0.012zM160.746 96.717l167.53 35.936 395.152 395.152-131.595 131.595-395.152-395.108zM782.83 587.251l66.257 66.257c1.136 1.128 2.336 2.198 3.591 3.199l0.089 0.068c14.291 16.249 23.012 37.7 23.012 61.187 0 0.375-0.002 0.749-0.007 1.124v-0.057c0.004 0.287 0.006 0.624 0.006 0.963 0 25.393-10.228 48.398-26.79 65.118l0.007-0.007c-16.782 16.639-39.89 26.92-65.399 26.92-0.254 0-0.507-0.001-0.761-0.004h0.038c-0.287 0.004-0.625 0.006-0.964 0.006-23.52 0-45.003-8.719-61.397-23.102l0.105 0.091c-1.068-1.345-2.136-2.545-3.269-3.683l-66.303-66.256z" />
<glyph unicode="&#xe90a;" glyph-name="information" d="M548.322 895.992c0.374 0.007 0.817 0.009 1.259 0.009 23.727 0 45.16-9.817 60.461-25.611l0.021-0.021c15.815-15.323 25.633-36.757 25.633-60.484 0-0.442-0.004-0.885-0.010-1.325l0.001 0.066c0.007-0.374 0.009-0.817 0.009-1.259 0-23.727-9.817-45.16-25.611-60.461l-0.021-0.021c-15.323-15.815-36.757-25.633-60.484-25.633-0.442 0-0.885 0.004-1.325 0.010l0.066-0.001c-0.374-0.007-0.817-0.009-1.259-0.009-23.727 0-45.16 9.817-60.461 25.611l-0.021 0.021c-15.815 15.323-25.633 36.757-25.633 60.484 0 0.442 0.004 0.885 0.010 1.325l-0.001-0.066c-0.007 0.374-0.009 0.817-0.009 1.259 0 23.727 9.817 45.16 25.611 60.461l0.021 0.021c15.323 15.815 36.757 25.633 60.484 25.633 0.442 0 0.885-0.004 1.325-0.010l-0.066 0.001zM470.628 0v522.138h-82.324v123.486h234.829v-645.622z" />
<glyph unicode="&#xe90b;" glyph-name="check" d="M370.606 103.398l-266.355 266.027c-14.863 14.866-24.055 35.402-24.055 58.085s9.192 43.22 24.055 58.086v0c14.866 14.863 35.402 24.055 58.085 24.055s43.22-9.192 58.086-24.055l150.185-150.020 432.971 432.971c14.866 14.863 35.402 24.055 58.085 24.055s43.22-9.192 58.086-24.055v0c14.863-14.866 24.055-35.402 24.055-58.085s-9.192-43.22-24.055-58.086v0z" />
<glyph unicode="&#xe90c;" glyph-name="envelope" d="M965.799 705.396l-36.755 36.755-340.593-340.593c-20.196-19.745-47.856-31.927-78.366-31.927s-58.169 12.183-78.388 31.95l0.021-0.020-340.593 338.68-36.755-36.755 253.496-253.496-253.496-253.496 36.755-36.755 253.496 253.496 50.161-50.161c29.029-29.593 69.33-48.040 113.938-48.384l0.063-0.001c44.674 0.344 84.973 18.79 113.977 48.357l0.025 0.027 50.161 50.161 253.496-253.496 36.755 36.755-253.496 253.496 255.367 255.367zM927.082 149.976l-253.496 253.496-45.6-45.6c-30.316-30.822-72.412-49.975-118.985-50.161h-0.035c-46.604 0.186-88.7 19.339-118.996 50.138l-45.622 45.622-253.496-253.496-46.422 46.422 253.496 253.496-253.496 253.496 46.422 46.422 345.427-343.465c18.634-18.516 44.314-29.965 72.67-29.965 0.31 0 0.622 0.002 0.931 0.006h-0.047c0.282-0.004 0.615-0.006 0.949-0.006 28.326 0 53.983 11.428 72.613 29.924l345.421 345.421 46.422-46.422-255.367-255.367 253.496-253.496zM63.994 196.399l27.088-27.088 253.496 253.496 55.13-55.13c27.84-28.442 66.551-46.146 109.397-46.377h0.044c42.891 0.231 81.604 17.935 109.416 46.349l55.158 55.158 253.496-253.496 27.088 27.088-253.496 253.496 255.367 255.367-27.088 27.088-335.76-335.76c-21.087-20.969-50.154-33.931-82.247-33.931-0.344 0-0.683 0.002-1.027 0.006l0.051-0.001c-0.288-0.004-0.632-0.006-0.976-0.006-32.096 0-61.164 12.962-82.253 33.935l-335.755 333.841-27.088-27.088 253.496-253.496zM894.204 93.888h-764.408c-44.764 0.283-80.978 36.496-81.261 81.233v545.733c0.283 44.764 36.496 80.978 81.233 81.261h764.436c44.764-0.283 80.978-36.496 81.261-81.233v-545.733c-0.283-44.764-36.496-80.978-81.233-81.261h-0.028zM127.881 749.903c-0.193 0.006-0.419 0.006-0.648 0.006-14.607 0-26.447-11.842-26.447-26.447 0-0.227 0.004-0.455 0.007-0.681l-0.001 0.033v-545.706c-0.006-0.193-0.006-0.419-0.006-0.648 0-14.607 11.842-26.447 26.447-26.447 0.227 0 0.455 0.004 0.681 0.007l-0.033-0.001h764.27c0.193-0.006 0.419-0.006 0.648-0.006 14.607 0 26.447 11.842 26.447 26.447 0 0.227-0.004 0.455-0.007 0.681l0.001-0.033v545.706c0.006 0.193 0.006 0.419 0.006 0.648 0 14.607-11.842 26.447-26.447 26.447-0.227 0-0.455-0.004-0.681-0.007l0.033 0.001zM894.204 87.047h-764.408c-48.625 0.077-88.022 39.474-88.101 88.094v545.712c0.077 48.625 39.474 88.022 88.094 88.101h764.416c48.625-0.077 88.022-39.474 88.101-88.094v-545.712c-0.077-48.625-39.474-88.022-88.094-88.101h-0.006zM129.796 795.322c-41.081-0.051-74.369-33.339-74.419-74.417v-545.711c0.051-41.081 33.339-74.369 74.417-74.419h764.414c41.081 0.051 74.369 33.339 74.419 74.417v545.711c-0.051 41.081-33.339 74.369-74.417 74.419h-0.006zM892.244 143.227h-764.363c-0.22-0.006-0.479-0.007-0.739-0.007-18.335 0-33.197 14.861-33.197 33.197 0 0.259 0.004 0.518 0.009 0.776l-0.001-0.039v545.661c-0.006 0.22-0.007 0.479-0.007 0.739 0 18.335 14.861 33.197 33.197 33.197 0.259 0 0.518-0.004 0.776-0.009l-0.039 0.001h764.27c0.22 0.006 0.479 0.007 0.739 0.007 18.335 0 33.197-14.861 33.197-33.197 0-0.259-0.004-0.518-0.009-0.776l0.001 0.039v-545.706c0.006-0.22 0.007-0.479 0.007-0.739 0-18.335-14.861-33.197-33.197-33.197-0.259 0-0.518 0.004-0.776 0.009l0.039-0.001zM127.881 742.881c-0.193 0.006-0.422 0.011-0.649 0.011-10.829 0-19.61-8.78-19.61-19.61 0-0.23 0.006-0.457 0.012-0.682l-0.001 0.033v-545.706c-0.006-0.193-0.011-0.422-0.011-0.649 0-10.829 8.78-19.61 19.61-19.61 0.23 0 0.457 0.006 0.682 0.012l-0.033-0.001h764.27c0.193-0.006 0.422-0.011 0.649-0.011 10.829 0 19.61 8.78 19.61 19.61 0 0.23-0.006 0.457-0.012 0.682l0.001-0.033v545.89c0.006 0.193 0.011 0.422 0.011 0.649 0 10.829-8.78 19.61-19.61 19.61-0.23 0-0.457-0.006-0.682-0.012l0.033 0.001z" />
<glyph unicode="&#xe90d;" glyph-name="scheduled" d="M876.057 791.817h-121.368v80.896h-80.896v-242.686h80.896v80.896h121.368v-606.74h-728.111v606.74h80.896v80.896h-80.896c-44.666-0.030-80.864-36.23-80.896-80.892v-606.744c0.030-44.666 36.23-80.864 80.892-80.896h728.112c44.666 0.030 80.864 36.23 80.896 80.892v606.744c-0.030 44.666-36.23 80.864-80.892 80.896h-0.004zM350.212 710.921h283.16v80.896h-283.16v80.896h-80.896v-242.686h80.896zM378.804 415.932l-57.184-57.184 149.961-149.961 230.856 230.591-57.184 57.184-173.674-173.674z" />
<glyph unicode="&#xe90e;" glyph-name="telephone" d="M853.957 0c-436.065 0.493-789.436 353.845-789.957 789.857v0.049c0.058 58.57 47.523 106.037 106.089 106.095h149.577c58.583-0.029 106.066-47.511 106.095-106.092v-0.003c0-0.186-0.001-0.404-0.001-0.623 0-47.236 7.75-92.662 22.050-135.076l-0.872 2.979v-0.56c3.178-9.653 5.011-20.763 5.011-32.301 0-28.336-11.055-54.089-29.088-73.184l0.049 0.051-49.687-66.182c41.775-74.225 101.597-133.917 173.673-174.364l2.269-1.169 68.37 51.622c18.497 16.499 43.029 26.583 69.914 26.583 0.478 0 0.955-0.004 1.431-0.009l-0.073 0.001c0.304 0.004 0.665 0.006 1.024 0.006 11.411 0 22.386-1.865 32.638-5.307l-0.722 0.211c39.243-13.332 84.445-21.026 131.445-21.026 0.323 0 0.646 0 0.968 0.001h-0.049c58.519-0.175 105.89-47.652 105.89-106.197 0-0.035 0-0.072 0-0.107v0.006-149.163c-0.058-58.554-47.495-106.008-106.035-106.095h-0.007zM170.096 814.545c-13.608 0-24.64-11.032-24.64-24.64v0c0.464-391.098 317.401-708.016 708.461-708.45h0.041c13.608 0 24.64 11.032 24.64 24.64v0 149.163c0 13.608-11.032 24.64-24.64 24.64v0c-0.194 0-0.425 0-0.655 0-56.201 0-110.245 9.222-160.707 26.237l3.544-1.037h-0.357c-1.962 0.648-4.221 1.020-6.566 1.020-0.107 0-0.216-0.001-0.323-0.003h0.017c-0.172 0.005-0.372 0.007-0.575 0.007-5.482 0-10.575-1.676-14.79-4.544l0.091 0.059-2.19-2.24-115.157-86.597-22.96 12.27c-106.271 53.831-190.533 138.091-242.935 241.261l-1.43 3.102-12.117 22.858 84.407 112 2.037 2.037c4.579 4.541 7.413 10.832 7.413 17.787 0 2.739-0.441 5.376-1.253 7.844l0.050-0.176c-15.946 46.937-25.15 101.003-25.15 157.22 0 0.21 0 0.421 0 0.631v-0.033c0.001 0.076 0.001 0.165 0.001 0.255 0 13.636-11.054 24.69-24.69 24.69-0.001 0-0.001 0-0.002 0v0z" />
<glyph unicode="&#xe90f;" glyph-name="telephone2" d="M853.873 0.002c-436.057 0.508-789.409 353.886-789.874 789.903v0.046c0.085 58.536 47.514 105.966 106.043 106.051h149.64c58.58-0.042 106.051-47.539 106.051-106.125 0 0 0 0 0 0v0c0-0.16 0-0.347 0-0.537 0-47.253 7.757-92.693 22.068-135.118l-0.873 2.978v-0.595c3.185-9.662 5.023-20.783 5.023-32.333 0-28.334-11.057-54.086-29.092-73.174l0.049 0.050-49.679-66.040c41.753-74.24 101.556-133.948 173.616-174.416l2.267-1.169 68.345 51.611c18.493 16.485 43.015 26.559 69.888 26.559 0.478 0 0.955-0.004 1.43-0.009l-0.072 0.001c0.14 0.001 0.305 0.001 0.471 0.001 11.618 0 22.785-1.933 33.195-5.495l-0.721 0.215c39.262-13.345 84.485-21.048 131.509-21.048 0.279 0 0.558 0 0.836 0.001h-0.043c58.536-0.085 105.966-47.514 106.051-106.043v-149.192c-0.042-58.595-47.531-106.083-106.121-106.126h-0.005zM170.049 814.195c-13.29-0.245-23.999-10.955-24.243-24.221v-0.023c0.465-391.073 317.367-707.975 708.395-708.44h0.046c13.578 0.042 24.575 11.039 24.617 24.612v149.115c-0.042 13.578-11.039 24.575-24.612 24.617h-0.005c-0.272-0.001-0.593-0.001-0.913-0.001-56.212 0-110.27 9.227-160.74 26.249l3.544-1.037c-2.111 0.756-4.547 1.193-7.086 1.193-0.123 0-0.246-0.001-0.371-0.004h0.019c-0.214 0.007-0.464 0.009-0.716 0.009-5.475 0-10.559-1.672-14.771-4.53l0.091 0.059-2.157-2.232-114.901-86.714-22.981 12.271c-106.239 53.826-190.477 138.063-242.873 241.2l-1.43 3.101-12.122 22.906 84.632 112.223 2.009 2.009c4.569 4.541 7.396 10.829 7.396 17.776 0 2.765-0.447 5.424-1.274 7.909l0.050-0.176c-16.079 47.115-25.361 101.392-25.361 157.836 0 0.018 0 0.035 0 0.052v-0.003c-0.25 13.419-11.166 24.205-24.612 24.244h-0.004z" />
<glyph unicode="&#xe910;" glyph-name="key" d="M308.597 3.749c-170.45 0.071-308.598 138.266-308.598 308.724 0 170.503 138.221 308.724 308.724 308.724 63.917 0 123.3-19.424 172.562-52.692l-1.092 0.696 305.409 305.409c10.904 10.899 25.963 17.639 42.598 17.639s31.695-6.74 42.598-17.64l135.563-135.563c10.899-10.904 17.639-25.963 17.639-42.598s-6.74-31.695-17.64-42.598l-158.158-158.158c-10.904-10.899-25.963-17.639-42.598-17.639s-31.695 6.74-42.598 17.64l-92.966 92.966-104.656-104.656c32.631-48.194 52.094-107.621 52.094-171.593 0-170.471-138.194-308.664-308.664-308.664-0.076 0-0.153 0-0.229 0h0.012zM308.597 500.637c-103.967-0.025-188.238-84.312-188.238-188.283 0-103.987 84.297-188.283 188.283-188.283s188.283 84.297 188.283 188.283c0 51.435-20.623 98.052-54.053 132.034l-1.118 1.118c-33.841 34.053-80.707 55.13-132.493 55.13-0.231 0-0.464 0-0.695-0.001h0.035zM755.296 673.856l50.369-50.369 72.904 72.962-50.369 50.369z" />
<glyph unicode="&#xe911;" glyph-name="cros-icon" d="M859.907 0.010c-0.012 0-0.027 0-0.042 0-27.609 0-52.601 11.205-70.678 29.313l-695.903 695.903c-18.092 18.102-29.28 43.105-29.28 70.72 0 55.253 44.792 100.046 100.046 100.046 27.638 0 52.658-11.207 70.764-29.323l695.901-695.901c18.094-18.101 29.284-43.105 29.284-70.72 0-55.237-44.77-100.020-100.005-100.035h-0.002zM164.007 0.010c-55.236 0.018-100.007 44.797-100.007 100.035 0 27.616 11.192 52.618 29.285 70.721l695.9 695.9c18.107 18.117 43.126 29.324 70.764 29.324 55.253 0 100.046-44.792 100.046-100.046 0-27.615-11.19-52.618-29.28-70.721l-695.9-695.9c-18.078-18.11-43.070-29.315-70.678-29.315-0.046 0-0.091 0-0.135 0h0.007z" />
<glyph unicode="&#xe912;" glyph-name="search-icon" d="M907.324-0.001c-12.229 0.002-23.484 4.166-32.425 11.155l0.117-0.088-4.954 4.428-171.031 170.925c-65.305-50.538-148.365-81.011-238.542-81.011-0.41 0-0.819 0.001-1.226 0.002h0.063c-218.315 0-395.295 176.98-395.295 395.295s176.98 395.295 395.295 395.295c218.315 0 395.295-176.98 395.295-395.295v0c0.002-0.386 0.002-0.845 0.002-1.302 0-90.141-30.452-173.171-81.63-239.361l0.672 0.903 170.925-171.031c9.503-9.532 15.379-22.686 15.379-37.21 0-29.085-23.561-52.67-52.638-52.705h-0.004zM459.324 790.586c-0.079 0-0.173 0-0.266 0-160.097 0-289.882-129.785-289.882-289.882s129.785-289.882 289.882-289.882c71.535 0 137.019 25.911 187.577 68.861l-0.415-0.343c5.255 16.65 18.095 29.506 34.361 34.684l0.373 0.103c42.308 50.051 68.026 115.311 68.026 186.579 0 160.017-129.655 289.752-289.642 289.882h-0.012z" />
<glyph unicode="&#xe913;" glyph-name="plus" d="M903.999 503.992h-335.989v336.007c0 30.929-25.072 56.001-56.001 56.001s-56.001-25.072-56.001-56.001v0-336.007h-336.007c-30.929 0-56.001-25.072-56.001-56.001s25.072-56.001 56.001-56.001h336.007v-335.989c0-30.929 25.072-56.001 56.001-56.001s56.001 25.072 56.001 56.001v0 335.989h335.989c30.929 0 56.001 25.072 56.001 56.001s-25.072 56.001-56.001 56.001v0z" />
<glyph unicode="&#xe914;" glyph-name="right-arrow" d="M557.653 878.958l430.958-407.974-430.958-453.942v282.241h-55.757c-192.153 0-323.778-98.366-370.722-277.031l-95.784 12.37c0 185.482 36.863 315.208 116.042 408.217 85.9 100.946 219.131 154.074 406.171 161.719zM850.801 467.333l-195.757 185.336v-144.481h-48.695c-182.609 0-307.173-42.025-380.704-128.459-25.025-29.782-45.159-64.682-58.55-102.759l-0.713-2.326c83.718 75.901 195.349 122.361 317.829 122.361 6.219 0 12.41-0.119 18.572-0.357l-0.888 0.027h153.148v-135.569z" />
<glyph unicode="&#xe915;" glyph-name="top-arrow" d="M514.354 0c-48.704 0-88.137 53.796-88.137 120.194v655.613c0 66.396 39.172 120.194 88.137 120.194s88.137-53.796 88.137-120.194v-655.613c0-66.396-39.172-120.194-88.137-120.194zM754.675 479.403c-24.395 0.047-46.447 10.026-62.341 26.106l-178.046 178.046-178.298-178.365c-16.242-18.534-39.96-30.174-66.395-30.174-48.677 0-88.137 39.46-88.137 88.137 0 26.582 11.767 50.417 30.379 66.577l0.108 0.091 240.061 240.061c15.95 15.946 37.981 25.809 62.317 25.809s46.367-9.863 62.317-25.809l240.387-240.387c15.771-15.92 25.516-37.834 25.516-62.024 0-48.582-39.305-87.983-87.851-88.137h-0.015z" />
<glyph unicode="&#xe916;" glyph-name="print" d="M863.358 671.852h-64.187v127.925c0 0 0 0 0 0 0 52.893-42.824 95.785-95.693 95.894h-383.654c-52.96 0-95.895-42.933-95.895-95.895v-127.925h-64.187c-52.878-0.109-95.702-43-95.702-95.894 0 0 0 0 0 0v0-255.783c0-52.96 42.933-95.895 95.895-95.895h64.187v-191.854c0-17.725 14.369-32.093 32.093-32.093v0h511.568c17.725 0 32.093 14.369 32.093 32.093v0 191.854h64.187c52.96 0 95.895 42.933 95.895 95.895v0 255.783c0 0.001 0 0.002 0 0.003 0 52.96-42.933 95.895-95.895 95.895-0.248 0-0.497-0.001-0.744-0.003h0.037zM287.862 799.775c0 17.725 14.369 32.093 32.093 32.093v0h383.644c17.725 0 32.093-14.369 32.093-32.093v0-127.925h-447.831zM191.903 512.026c0 17.725 14.369 32.093 32.093 32.093v0h127.796c17.725 0 32.093-14.369 32.093-32.093s-14.369-32.093-32.093-32.093v0h-127.859c-17.697 0.036-32.029 14.391-32.029 32.093 0 0 0 0 0 0v0zM735.436 64.388h-447.573v287.747h447.573zM639.54 224.277h-255.783c-17.725 0-32.093 14.369-32.093 32.093s14.369 32.093 32.093 32.093v0h255.783c17.725 0 32.093-14.369 32.093-32.093s-14.369-32.093-32.093-32.093v0zM575.353 128.384h-191.596c-17.725 0-32.093 14.369-32.093 32.093s14.369 32.093 32.093 32.093v0h191.854c17.725 0 32.093-14.369 32.093-32.093s-14.369-32.093-32.093-32.093v0z" />
<glyph unicode="&#xe917;" glyph-name="walkin" d="M211.167 65.083c-3.89-6.33-6.195-13.996-6.195-22.202 0-23.681 19.199-42.881 42.881-42.881 13.867 0 26.194 6.582 34.033 16.791l0.076 0.102c6.675 9.709 73.727 107.91 138.957 203.786l-52.033 75.85c-75.144-110.388-152.712-223.961-157.718-231.444zM332.781 818.43c0-0.015 0-0.033 0-0.050 0-42.869 34.753-77.621 77.621-77.621s77.621 34.753 77.621 77.621c0 42.85-34.724 77.593-77.567 77.621h-0.003c-42.861 0-77.613-34.717-77.671-77.564v-0.006zM799.261 385.627h-60.681v31.099c0 8.379-6.792 15.169-15.169 15.169v0h-32.313c0.133 1.099 0.209 2.373 0.209 3.661 0 6.776-2.103 13.061-5.691 18.238l0.069-0.105-163.331 237.664c-9.844 14.98-26.571 24.733-45.577 24.733-0.279 0-0.557-0.002-0.835-0.007l0.042 0.001h-122.523c-0.304 0.007-0.664 0.009-1.022 0.009-16.866 0-31.897-7.864-41.622-20.126l-0.084-0.109s-73.423-100.477-89.756-122.727c-3.897-5.292-6.237-11.937-6.237-19.131 0-0.973 0.043-1.937 0.126-2.887l-0.008 0.122c0-16.131 0-97.594 0-122.372 0-17.858 14.478-32.337 32.337-32.337s32.337 14.478 32.337 32.337v0c0 7.585 0 79.289 0 114.837l46.42 63.36v-154.583c-0.229-3.114-0.358-6.744-0.358-10.407 0-29.557 8.476-57.134 23.128-80.434l-0.37 0.628c54.107-78.884 225.377-328.988 236.248-345.019 7.932-9.954 20.055-16.276 33.655-16.276 23.709 0 42.931 19.221 42.931 42.931 0 7.931-2.15 15.362-5.901 21.737l0.109-0.201-86.267 125.964h230.129c10.92 0 19.772 8.853 19.772 19.772v0 154.938c-0.143 10.811-8.939 19.519-19.77 19.519-0.001 0-0.001 0-0.002 0v0zM587.588 416.727v-31.099h-58.556c-10.92 0-19.772-8.853-19.772-19.772v0-87.177l-19.519 28.469v317.662l132.486-192.813h-19.467c-8.357-0.029-15.12-6.81-15.12-15.169 0-0.035 0-0.071 0-0.106v0.006zM708.191 385.627h-90.211v15.928h90.263z" />
<glyph unicode="&#xe918;" glyph-name="angle-down" d="M797.143 566.857c0-4.571-2.286-9.714-5.714-13.143l-266.286-266.286c-3.429-3.429-8.571-5.714-13.143-5.714s-9.714 2.286-13.143 5.714l-266.286 266.286c-3.429 3.429-5.714 8.571-5.714 13.143s2.286 9.714 5.714 13.143l28.571 28.571c3.429 3.429 8 5.714 13.143 5.714 4.571 0 9.714-2.286 13.143-5.714l224.571-224.571 224.571 224.571c3.429 3.429 8.571 5.714 13.143 5.714s9.714-2.286 13.143-5.714l28.571-28.571c3.429-3.429 5.714-8.571 5.714-13.143z" />
<glyph unicode="&#xe919;" glyph-name="angle-up" d="M797.141 329.142c0-4.571-2.286-9.714-5.714-13.143l-28.571-28.571c-3.429-3.429-8-5.714-13.143-5.714-4.571 0-9.714 2.286-13.143 5.714l-224.571 224.571-224.571-224.571c-3.429-3.429-8.571-5.714-13.143-5.714s-9.714 2.286-13.143 5.714l-28.571 28.571c-3.429 3.429-5.714 8.571-5.714 13.143s2.286 9.714 5.714 13.143l266.286 266.286c3.429 3.429 8.571 5.714 13.143 5.714s9.714-2.286 13.143-5.714l266.286-266.286c3.429-3.429 5.714-8.571 5.714-13.143z" />
<glyph unicode="&#xe91a;" glyph-name="angle-right" d="M678.285 448.001c0-4.571-2.286-9.714-5.714-13.143l-266.286-266.286c-3.429-3.429-8.571-5.714-13.143-5.714s-9.714 2.286-13.143 5.714l-28.571 28.571c-3.429 3.429-5.714 8-5.714 13.143 0 4.571 2.286 9.714 5.714 13.143l224.571 224.571-224.571 224.571c-3.429 3.429-5.714 8.571-5.714 13.143s2.286 9.714 5.714 13.143l28.571 28.571c3.429 3.429 8.571 5.714 13.143 5.714s9.714-2.286 13.143-5.714l266.286-266.286c3.429-3.429 5.714-8.571 5.714-13.143z" />
<glyph unicode="&#xe91b;" glyph-name="angle-left" d="M678.286 685.713c0-4.571-2.286-9.714-5.714-13.143l-224.571-224.571 224.571-224.571c3.429-3.429 5.714-8.571 5.714-13.143s-2.286-9.714-5.714-13.143l-28.571-28.571c-3.429-3.429-8.571-5.714-13.143-5.714s-9.714 2.286-13.143 5.714l-266.286 266.286c-3.429 3.429-5.714 8.571-5.714 13.143s2.286 9.714 5.714 13.143l266.286 266.286c3.429 3.429 8.571 5.714 13.143 5.714s9.714-2.286 13.143-5.714l28.571-28.571c3.429-3.429 5.714-8 5.714-13.143z" />
<glyph unicode="&#xe91c;" glyph-name="filter" d="M911.429 763.999c5.714-13.714 2.857-29.714-8-40l-281.714-281.714v-424c0-14.857-9.143-28-22.286-33.714-4.571-1.714-9.714-2.857-14.286-2.857-9.714 0-18.857 3.429-25.714 10.857l-146.286 146.286c-6.857 6.857-10.857 16-10.857 25.714v277.714l-281.714 281.714c-10.857 10.286-13.714 26.286-8 40 5.714 13.143 18.857 22.286 33.714 22.286h731.429c14.857 0 28-9.143 33.714-22.286z" />
<glyph unicode="&#xe91d;" glyph-name="table" d="M999.040 474.067h-652.322c-13.898-0.711-24.899-12.153-24.899-26.163s11-25.453 24.833-26.162l0.062-0.004h652.387c13.898 0.711 24.899 12.153 24.899 26.163s-11 25.453-24.833 26.162l-0.062 0.004zM999.040 145.815h-652.322c-13.898-0.711-24.899-12.153-24.899-26.163s11-25.453 24.833-26.162l0.062-0.004h652.387c13.898 0.711 24.899 12.153 24.899 26.163s-11 25.453-24.833 26.162l-0.062 0.004zM346.652 750.185h652.387c13.898 0.711 24.899 12.153 24.899 26.163s-11 25.453-24.833 26.162l-0.062 0.004h-652.322c-13.898-0.711-24.899-12.153-24.899-26.163s11-25.453 24.833-26.162l0.062-0.004zM162.314 474.067h-137.416c-13.898-0.711-24.899-12.153-24.899-26.163s11-25.453 24.833-26.162l0.062-0.004h137.479c13.898 0.711 24.899 12.153 24.899 26.163s-11 25.453-24.833 26.162l-0.062 0.004zM162.314 145.815h-137.416c-13.898-0.711-24.899-12.153-24.899-26.163s11-25.453 24.833-26.162l0.062-0.004h137.479c13.898 0.711 24.899 12.153 24.899 26.163s-11 25.453-24.833 26.162l-0.062 0.004zM24.834 750.185h137.479c13.898 0.711 24.899 12.153 24.899 26.163s-11 25.453-24.833 26.162l-0.062 0.004h-137.416c-13.898-0.711-24.899-12.153-24.899-26.163s11-25.453 24.833-26.162l0.062-0.004z" />
<glyph unicode="&#xe91e;" glyph-name="card" d="M81.467 785.451c-44.92-0.181-81.286-36.547-81.467-81.45v-511.985c0.181-44.92 36.547-81.286 81.45-81.467h861.083c44.92 0.181 81.286 36.547 81.467 81.45v511.985c-0.181 44.92-36.547 81.286-81.45 81.467h-0.017zM81.467 738.926h861.066c0.153 0.002 0.334 0.004 0.516 0.004 18.98 0 34.366-15.386 34.366-34.366 0-0.181-0.001-0.362-0.004-0.543v0.027-511.968c0.002-0.153 0.004-0.334 0.004-0.516 0-18.98-15.386-34.366-34.366-34.366-0.181 0-0.362 0.001-0.543 0.004h-861.039c-0.153-0.002-0.334-0.004-0.516-0.004-18.98 0-34.366 15.386-34.366 34.366 0 0.181 0.001 0.362 0.004 0.543v-0.027 511.968c-0.002 0.153-0.004 0.334-0.004 0.516 0 18.98 15.386 34.366 34.366 34.366 0.181 0 0.362-0.001 0.543-0.004h-0.027zM558.557 599.286c-12.329-0.667-22.074-10.826-22.074-23.263s9.744-22.596 22.015-23.26l0.059-0.003h325.804c12.329 0.667 22.074 10.826 22.074 23.263s-9.744 22.596-22.015 23.26l-0.059 0.003zM558.557 471.294c-12.329-0.667-22.074-10.826-22.074-23.263s9.744-22.596 22.015-23.26l0.059-0.003h325.804c12.329 0.667 22.074 10.826 22.074 23.263s-9.744 22.596-22.015 23.26l-0.059 0.003zM558.557 343.302c-12.329-0.667-22.074-10.826-22.074-23.263s9.744-22.596 22.015-23.26l0.059-0.003h325.804c12.329 0.667 22.074 10.826 22.074 23.263s-9.744 22.596-22.015 23.26l-0.059 0.003zM329.963 563.385h-137.719c-25.68-0.036-46.489-20.845-46.525-46.521v-137.723c0.036-25.68 20.845-46.489 46.521-46.525h137.723c25.68 0.036 46.489 20.845 46.525 46.521v137.723c-0.036 25.68-20.845 46.489-46.521 46.525h-0.004zM192.244 379.14v137.719h137.719v-137.719z" />
<glyph unicode="&#xe91f;" glyph-name="refresh" d="M782.596 719.712l112.28 112.28v-336.842h-336.842l154.948 154.948q-85.334 85.334-202.105 85.334-119.018 0-203.226-84.21t-84.21-203.226 84.21-203.226 203.226-84.21q83.088 0 162.808 56.142t108.912 134.737h98.807q-31.438-125.754-134.737-206.597t-235.789-80.841q-157.194 0-269.473 112.28t-112.28 271.719 112.28 271.719 269.473 112.28q67.369 0 147.089-32.562t124.631-79.72z" />
<glyph unicode="&#xe920;" glyph-name="location" d="M511.427 499.923c81.97 0 148.42 66.45 148.42 148.42s-66.45 148.42-148.42 148.42c-81.97 0-148.42-66.45-148.42-148.42v0c0-0.133-0.001-0.291-0.001-0.449 0-81.722 66.25-147.972 147.972-147.972 0.158 0 0.316 0 0.473 0.001h-0.025zM511.427 742.747c52.173 0 94.467-42.294 94.467-94.467s-42.294-94.467-94.467-94.467c-52.173 0-94.467 42.294-94.467 94.467v0c0.145 52.114 42.352 94.322 94.453 94.467h0.014zM511.299-64c240.135 0 451.983 109.251 451.983 234.759 0 83.651-101.187 165.957-249.608 207.75 55.241 75.972 94.299 167.238 110.185 266.247l0.474 3.586c-0.382 172.206-140.070 311.659-312.33 311.659-172.495 0-312.331-139.835-312.331-312.331 0-0.236 0-0.473 0.001-0.709v0.037c15.927-102.648 55.050-193.994 111.869-271.564l-1.21 1.731c-148.42-41.793-249.608-124.1-249.608-207.75-1.28-124.164 210.566-233.415 450.575-233.415zM511.299 904.736c142.103-0.507 257.165-115.569 257.672-257.623v-0.049c0-60.738-51.202-163.269-121.604-271.177v-1.344c-41.857-63.426-89.027-129.54-136.26-188.87-47.233 59.394-94.467 125.444-136.26 190.214-68.802 106.563-121.604 209.094-121.604 271.177 0.509 142.225 115.795 257.354 258.031 257.608h0.025zM339.966 329.997c48.577-72.834 98.499-138.948 130.884-180.805 9.236-11.554 23.33-18.892 39.137-18.892s29.901 7.337 39.060 18.792l0.077 0.1c32.385 41.793 83.651 107.907 130.884 180.805 142.98-35.073 226.631-107.907 226.631-159.173 0-82.306-178.117-180.805-398.029-180.805s-398.029 98.499-398.029 180.805c2.688 51.202 87.683 124.1 229.383 159.173z" />
<glyph unicode="&#xe921;" glyph-name="multiday-appt" d="M196.267 369.066h-78.934c-43.594 0-78.934 35.34-78.934 78.934v0 315.733c0 43.594 35.34 78.934 78.934 78.934v0h473.599c43.594 0 78.934-35.34 78.934-78.934v0-78.934h-78.934v78.934h-473.599v-315.733h78.934v-78.934zM906.666 53.334h-473.599c-43.594 0-78.934 35.34-78.934 78.934v0 315.733c0 43.594 35.34 78.934 78.934 78.934v0h473.599c43.594 0 78.934-35.34 78.934-78.934v0-315.733c0-43.594-35.34-78.934-78.934-78.934v0zM433.067 448v-315.733h473.599v315.733zM354.134 211.2h-78.934c-43.594 0-78.934 35.34-78.934 78.934v0 315.733c0 43.594 35.34 78.934 78.934 78.934v0h473.599c43.594 0 78.934-35.34 78.934-78.934v0-78.934h-78.934v78.934h-473.599v-315.733h78.934v-78.934z" />
<glyph unicode="&#xe922;" glyph-name="time-in" d="M622.34 570.213c-0.016 0-0.034 0-0.051 0-133.874 0-242.399-108.525-242.399-242.399s108.525-242.399 242.399-242.399c133.855 0 242.37 108.496 242.399 242.345v0.003c-0.147 133.805-108.549 242.245-242.328 242.451h-0.021zM622.34 655.52c181.016 0 327.76-146.742 327.76-327.76s-146.742-327.76-327.76-327.76c-181.016 0-327.76 146.742-327.76 327.76v0c0 181.016 146.742 327.76 327.76 327.76v0zM697.698 202.337c-0.014 0-0.032 0-0.049 0-11.764 0-22.412 4.774-30.115 12.49l-75.358 75.358c-7.718 7.719-12.491 18.381-12.491 30.159 0 0.002 0 0.004 0 0.006v0 145.635c0 23.557 19.097 42.654 42.654 42.654s42.654-19.097 42.654-42.654v0-128.015l62.867-62.867c7.721-7.72 12.495-18.384 12.495-30.163 0-23.557-19.097-42.654-42.654-42.654-0.002 0-0.004 0-0.006 0v0zM168.121 588.403l76.81 76.394-171.031 170.668 60.484 60.535 170.668-170.668 76.394 76.394v-213.324z" />
<glyph unicode="&#xe923;" glyph-name="time-out" d="M399.522 594.177c-0.016 0-0.034 0-0.052 0-136.338 0-246.86-110.524-246.86-246.86s110.524-246.86 246.86-246.86c136.319 0 246.831 110.494 246.86 246.805v0.003c-0.15 136.27-110.547 246.704-246.788 246.912h-0.020zM399.522 681.056c184.349 0 333.791-149.443 333.791-333.791s-149.443-333.791-333.791-333.791c-184.349 0-333.791 149.443-333.791 333.791v0c0 184.349 149.443 333.791 333.791 333.791v0zM486.454 219.53c-0.015 0-0.033 0-0.048 0-11.981 0-22.825 4.862-30.669 12.72l-76.798 76.745c-7.859 7.861-12.72 18.719-12.72 30.713 0 0.002 0 0.004 0 0.007v0 148.316c0 23.99 19.449 43.44 43.44 43.44s43.44-19.449 43.44-43.44v0-130.371l64.077-64.024c7.863-7.861 12.726-18.722 12.726-30.719 0-23.99-19.449-43.44-43.44-43.44-0.002 0-0.005 0-0.007 0v0zM740.863 882.523l78.222-77.8-174.181-173.81 61.701-61.701 173.864 173.81 77.8-77.8v217.303z" />
<glyph unicode="&#xe924;" glyph-name="pass" d="M883.674 223.486v79.354c-50.4 29.57-83.704 83.488-83.704 145.185s33.305 115.615 82.915 144.757l0.789 0.429v79.538h-743.346v-79.491c50.4-29.57 83.704-83.488 83.704-145.185s-33.305-115.615-82.915-144.757l-0.789-0.429v-79.585h743.346zM930.134 133.401h-836.265c-0.21-0.006-0.456-0.006-0.704-0.006-24.998 0-45.315 20.044-45.755 44.936l-0.001 0.041v188.718c0.818-0.029 1.778-0.046 2.743-0.046 44.723 0 80.978 36.255 80.978 80.978s-36.255 80.978-80.978 80.978c-0.965 0-1.925-0.016-2.882-0.051l0.139 0.006v188.718c0.468 24.914 20.773 44.932 45.755 44.932 0.248 0 0.495-0.002 0.741-0.006l-0.037 0.001h836.265c0.21 0.006 0.456 0.006 0.704 0.006 24.982 0 45.288-20.018 45.754-44.888l0.001-0.043v-188.718c-0.818 0.029-1.778 0.046-2.743 0.046-44.723 0-80.978-36.255-80.978-80.978s36.255-80.978 80.978-80.978c0.965 0 1.925 0.016 2.882 0.051l-0.139-0.006v-188.718c-0.569-24.832-20.835-44.746-45.75-44.746-0.249 0-0.495 0.002-0.745 0.006l0.037-0.001zM663.644 194.494c-20.527 0-37.166 16.641-37.166 37.166v77.633c0 20.527 16.641 37.166 37.166 37.166s37.166-16.641 37.166-37.166v0-77.633c0-20.527-16.641-37.166-37.166-37.166v0zM663.644 365.048c-20.527 0-37.166 16.641-37.166 37.166v0 92.918c0 20.527 16.641 37.166 37.166 37.166s37.166-16.641 37.166-37.166v0-92.918c0-20.527-16.641-37.166-37.166-37.166v0zM663.644 550.884c-20.527 0-37.166 16.641-37.166 37.166v0 92.918c0 20.527 16.641 37.166 37.166 37.166s37.166-16.641 37.166-37.166v0-92.918c0-20.527-16.641-37.166-37.166-37.166v0z" />
<glyph unicode="&#xe925;" glyph-name="email-template" d="M378.006 722.387h-168.803c-11.671 1.237-20.685 11.027-20.685 22.925 0 0.617 0.024 1.227 0.072 1.832l-0.006-0.079c-0.053 0.59-0.084 1.275-0.084 1.967 0 11.873 8.98 21.65 20.517 22.909l0.103 0.008h168.803c11.659-1.248 20.661-11.034 20.661-22.922 0-0.692-0.031-1.376-0.091-2.051l0.007 0.088c0.050-0.576 0.080-1.245 0.080-1.923 0-11.886-8.999-21.672-20.557-22.912l-0.102-0.008zM378.048 631.797h-112.549c-11.637 1.248-20.619 11.014-20.619 22.88 0 0.693 0.031 1.376 0.091 2.051l-0.007-0.088c-0.056 0.601-0.088 1.299-0.088 2.006 0 11.865 8.984 21.635 20.522 22.87l0.102 0.008h112.508c11.639-1.246 20.623-11.013 20.623-22.88 0-0.707-0.032-1.405-0.094-2.094l0.007 0.090c0.053-0.589 0.084-1.272 0.084-1.965 0-11.865-8.982-21.632-20.517-22.87l-0.102-0.008zM330.912 579.391c-59.981-0.189-108.553-48.763-108.744-108.725v-361.922c0.143-59.999 48.743-108.601 108.73-108.744h506.672c59.99 0.166 108.577 48.754 108.744 108.728v362.256c-0.166 59.99-48.754 108.577-108.728 108.744h-0.016zM353.205 506.993h461.614l-220.329-212.718c-2.915-2.528-6.746-4.070-10.938-4.070s-8.022 1.541-10.957 4.088l0.021-0.018zM873.749 463.203v-354.418c0.007-0.265 0.011-0.577 0.011-0.889 0-19.19-15.314-34.804-34.388-35.287l-0.045-0.001h-508.416c-0.265-0.007-0.577-0.011-0.889-0.011-19.168 0-34.762 15.295-35.245 34.347l-0.001 0.045c-0.021 0.25-0.033 0.542-0.033 0.836s0.012 0.586 0.035 0.875l-0.003-0.037v354.209l227.314-220.706c15.855-15.309 37.472-24.743 61.294-24.743s45.437 9.432 61.319 24.767l-0.025-0.024zM142.827 410.838c-36.185 0.992-65.141 30.562-65.141 66.896 0 0.581 0.007 1.162 0.021 1.741l-0.002-0.086v348.187c-0.011 0.455-0.018 0.992-0.018 1.53 0 36.333 28.954 65.901 65.047 66.893l0.091 0.002h303.769c36.183-0.994 65.137-30.563 65.137-66.896 0-0.539-0.007-1.073-0.020-1.608l0.002 0.079v-200.422h-69.512v195.821h-294.987v-338.776h39.984v-73.36z" />
<glyph unicode="&#xe926;" glyph-name="sms-template" d="M421.408 738.447h-153.447c-10.609 1.125-18.804 10.024-18.804 20.839 0 0.561 0.021 1.116 0.065 1.666l-0.005-0.073c-0.049 0.537-0.077 1.159-0.077 1.789 0 10.793 8.162 19.679 18.651 20.825l0.093 0.007h153.447c10.6-1.135 18.781-10.031 18.781-20.837 0-0.628-0.028-1.251-0.082-1.865l0.006 0.079c0.047-0.524 0.073-1.132 0.073-1.747 0-10.805-8.181-19.7-18.686-20.827l-0.091-0.007zM421.408 650.585h-102.31c-10.578 1.135-18.743 10.013-18.743 20.797 0 0.628 0.028 1.251 0.082 1.866l-0.006-0.079c-0.050 0.546-0.079 1.182-0.079 1.824 0 10.787 8.168 19.665 18.655 20.79l0.091 0.007h102.273c10.579-1.133 18.747-10.012 18.747-20.798 0-0.642-0.029-1.277-0.086-1.904l0.007 0.080c0.049-0.535 0.077-1.156 0.077-1.785 0-10.786-8.166-19.663-18.652-20.79l-0.091-0.007zM207.586 454.973c-32.893 0.903-59.215 27.783-59.215 60.809 0 0.529 0.007 1.057 0.021 1.582l-0.002-0.077v316.512c-0.010 0.413-0.016 0.902-0.016 1.391 0 33.027 26.32 59.907 59.129 60.809l0.083 0.002h276.135c32.893-0.903 59.213-27.783 59.213-60.809 0-0.489-0.007-0.976-0.018-1.463l0.002 0.072v-182.189h-63.189v178.008h-268.151v-307.958h36.347v-66.687zM665.949 337.57h-190.098c-14.698 0-26.614 11.916-26.614 26.614v0c0 14.698 11.916 26.614 26.614 26.614h190.098c14.698 0 26.614-11.916 26.614-26.614v0c0-14.698-11.916-26.614-26.614-26.614v0zM466.081 588.498h209.678c110.332-0.13 199.74-89.537 199.87-199.857v-83.883c-0.13-110.332-89.537-199.74-199.857-199.87h-98.559c-98.905-0.361-189.176-37.039-258.237-97.385l0.464 0.397c-5.612-4.908-13.007-7.902-21.101-7.902-17.743 0-32.126 14.385-32.126 32.126 0 0.024 0 0.049 0 0.073v-0.004 356.434c0.13 110.332 89.537 199.74 199.857 199.87h0.012zM675.759 169.182c74.864 0.087 135.528 60.753 135.615 135.608v83.842c-0.087 74.864-60.753 135.528-135.608 135.615h-209.686c-74.864-0.087-135.528-60.753-135.615-135.608v-292.379c69.699 45.563 155.013 72.736 246.66 72.921h0.049z" />
<glyph unicode="&#xe927;" glyph-name="show-list" d="M354.51 300.207c-12.987 20.52-20.693 45.497-20.693 72.277s7.705 51.757 21.026 72.837l-0.333-0.561c60.748 106.576 172.559 177.908 301.255 180.629l0.379 0.006c129.107-2.696 240.96-74.034 300.808-178.894l0.915-1.741c12.987-20.52 20.693-45.497 20.693-72.277s-7.705-51.757-21.026-72.837l0.333 0.561c-60.73-106.652-172.589-178.041-301.343-180.759l-0.378-0.006c-129.097 2.756-240.919 74.135-300.717 179.021l-0.916 1.744zM415.267 407.337c-6.231-9.917-9.928-21.976-9.928-34.893s3.697-24.977 10.087-35.17l-0.16 0.277c48.277-85.821 137.47-143.614 240.426-146.916l0.452-0.012c103.435 3.3 192.658 61.097 240.221 145.496l0.741 1.433c6.231 9.917 9.928 21.976 9.928 34.893s-3.697 24.977-10.087 35.17l0.16-0.277c-48.233 85.896-137.497 143.728-240.528 146.918l-0.437 0.011c-103.428-3.233-192.654-61.056-240.135-145.494l-0.741-1.433zM656.144 502.667c-71.907 0-130.205-58.294-130.205-130.205s58.294-130.205 130.205-130.205c71.907 0 130.205 58.294 130.205 130.205v0c0 71.907-58.294 130.205-130.205 130.205v0zM656.144 294.333c-43.148 0-78.129 34.981-78.129 78.129s34.981 78.129 78.129 78.129c43.148 0 78.129-34.981 78.129-78.129v0c0-43.148-34.981-78.129-78.129-78.129v0zM656.144 502.667v0c71.907 0 130.205-58.294 130.205-130.205s-58.294-130.205-130.205-130.205c-71.907 0-130.205 58.294-130.205 130.205v0c0.196 71.831 58.375 130.010 130.185 130.205h0.019zM656.144 268.231c57.547 0.025 104.188 46.68 104.188 104.231 0 57.565-46.667 104.231-104.231 104.231s-104.231-46.667-104.231-104.231v0c0.074-57.553 46.721-104.184 104.27-104.231h0.006zM656.144 455.779c46.013 0 83.316-37.302 83.316-83.316s-37.302-83.316-83.316-83.316c-46.013 0-83.316 37.302-83.316 83.316v0c0.048 45.994 37.322 83.268 83.312 83.316h0.006zM656.144 315.116c31.669 0 57.345 25.673 57.345 57.345s-25.673 57.345-57.345 57.345c-31.669 0-57.345-25.673-57.345-57.345v0c0.048-31.65 25.695-57.298 57.339-57.345h0.006zM62.727 776.558h706.123c9.547 0 17.286-7.738 17.286-17.286v-54.319c0-9.547-7.738-17.286-17.286-17.286h-706.123c-9.547 0-17.286 7.738-17.286 17.286v54.319c0 9.547 7.738 17.286 17.286 17.286zM62.727 591.386h224.67c9.547 0 17.286-7.738 17.286-17.286v-54.319c0-9.547-7.738-17.286-17.286-17.286h-224.67c-9.547 0-17.286 7.738-17.286 17.286v54.319c0 9.547 7.738 17.286 17.286 17.286zM62.727 406.213h150.601c9.547 0 17.286-7.738 17.286-17.286v-54.319c0-9.547-7.738-17.286-17.286-17.286h-150.601c-9.547 0-17.286 7.738-17.286 17.286v54.319c0 9.547 7.738 17.286 17.286 17.286z" />
<glyph unicode="&#xe928;" glyph-name="create-pass" d="M290.1 289.541h-179.221c-0.14-0.002-0.305-0.003-0.472-0.003-22.743 0-41.226 18.24-41.62 40.889l-0.001 0.037v171.551c0.781-0.031 1.698-0.045 2.622-0.045 40.603 0 73.523 32.916 73.523 73.523s-32.916 73.523-73.523 73.523c-0.923 0-1.841-0.019-2.756-0.051l0.134 0.006v171.551c0.446 22.621 18.886 40.786 41.57 40.786 0.184 0 0.368-0.001 0.549-0.005h759.93c0.155 0.003 0.339 0.005 0.523 0.005 22.686 0 41.126-18.166 41.57-40.743l0.001-0.043v-171.551c-0.082 0-0.175 0.001-0.272 0.001-25.58 0-48.247-12.478-62.248-31.676l-0.152-0.22c-19.6 18.664-41.599 35.106-65.41 48.747l-1.66 0.874c12.394 16.28 27.401 29.842 44.52 40.291l0.704 0.4v72.258h-675.117v-72.258c45.795-26.865 76.059-75.855 76.059-131.915s-30.263-105.050-75.344-131.526l-0.717-0.389v-72.212h126.607c0.032-29.054 3.765-57.224 10.754-84.076l-0.512 2.323zM628.756 668.935c-18.649 0-33.768 15.118-33.768 33.768v0 84.419c0 18.649 15.118 33.768 33.768 33.768s33.768-15.118 33.768-33.768v0-84.419c0-0.043 0-0.091 0-0.14 0-18.649-15.118-33.768-33.768-33.768 0 0 0 0 0 0v0zM617.625 625.72c-139.897 0-253.303-113.407-253.303-253.303s113.407-253.303 253.303-253.303c139.897 0 253.303 113.407 253.303 253.303v0c-0.161 139.833-113.472 253.144-253.289 253.303h-0.016zM617.625 710.139c186.519 0 337.723-151.203 337.723-337.723s-151.203-337.723-337.723-337.723c-186.519 0-337.723 151.203-337.723 337.723v0c0 186.519 151.203 337.723 337.723 337.723v0zM667.576 323.122v-88.488c0.015-0.407 0.021-0.885 0.021-1.364 0-11.632-4.787-22.148-12.502-29.681l-0.006-0.006c-7.769-7.536-18.379-12.181-30.075-12.181-0.476 0-0.949 0.006-1.425 0.023l0.070-0.002c-0.405-0.014-0.878-0.019-1.355-0.019-11.695 0-22.305 4.644-30.087 12.192l0.011-0.010c-7.803 7.551-12.649 18.122-12.649 29.823 0 0.449 0.006 0.898 0.019 1.344l-0.002-0.066v263.406c-0.015 0.407-0.021 0.885-0.021 1.364 0 11.632 4.787 22.148 12.502 29.681l0.006 0.006c7.898 7.548 18.63 12.191 30.441 12.191 0.576 0 1.154-0.011 1.724-0.032l-0.084 0.003c0.428 0.016 0.931 0.024 1.436 0.024 11.553 0 22.015-4.655 29.622-12.186l-0.005 0.005c7.531-7.601 12.186-18.067 12.186-29.619 0-0.506-0.007-1.008-0.027-1.508l0.003 0.071v-174.918zM580.443 322.466h-88.441c-0.407-0.015-0.885-0.021-1.364-0.021-11.632 0-22.148 4.787-29.681 12.502l-0.006 0.006c-7.536 7.769-12.181 18.379-12.181 30.075 0 0.476 0.006 0.949 0.023 1.425l-0.002-0.070c-0.014 0.405-0.019 0.878-0.019 1.355 0 11.695 4.644 22.305 12.192 30.087l-0.010-0.011c7.536 7.693 18.036 12.465 29.645 12.465 0.497 0 0.988-0.007 1.48-0.026l-0.071 0.002h263.406c0.407 0.015 0.885 0.021 1.364 0.021 11.632 0 22.148-4.787 29.681-12.502l0.006-0.006c7.548-7.898 12.191-18.63 12.191-30.441 0-0.576-0.011-1.154-0.032-1.724l0.003 0.084c0.019-0.484 0.032-1.053 0.032-1.621 0-22.988-18.636-41.623-41.623-41.623-0.571 0-1.138 0.011-1.703 0.032l0.082-0.003h-174.918z" />
<glyph unicode="&#xe929;" glyph-name="resend" d="M953.211 646.421l-269.607-210.386c-4.041-4.048-9.628-6.552-15.8-6.552-0.008 0-0.018 0-0.027 0h0.002c-0.004 0-0.008 0-0.011 0-3.141 0-6.134 0.63-8.86 1.772l0.151-0.056c-7.982 3.475-13.462 11.293-13.462 20.392 0 0.148 0.002 0.298 0.005 0.445v-0.022 126.008c-288.405 0-414.466-81.152-395.313-339.617-122.13 413.307 112.349 506.958 395.313 506.958v128.226c-0.003 0.134-0.005 0.293-0.005 0.452 0 9.094 5.51 16.896 13.369 20.26l0.144 0.054c2.502 1.041 5.412 1.646 8.459 1.646 6.27 0 11.944-2.556 16.038-6.683l0.002-0.002 269.658-211.341c4.006-4.042 6.481-9.608 6.481-15.751 0-6.168-2.496-11.754-6.532-15.801l0.001 0.001zM789.65 137.902c-0.086-38.074-30.969-68.902-69.053-68.902-0.036 0-0.071 0-0.106 0h-518.089c-0.015 0-0.033 0-0.050 0-38.074 0-68.944 30.836-69.002 68.896v516.941c0.058 38.065 30.929 68.902 69.002 68.902 0.018 0 0.036 0 0.053 0h79.99l103.58 68.801h-183.569c0 0 0 0 0 0-76.196 0-137.982-61.681-138.155-137.838v-516.801c0.173-76.182 61.955-137.875 138.153-137.903h518.1c76.183 0.028 137.954 61.692 138.155 137.834v364.939l-69.053-68.902v-296.020z" />
<glyph unicode="&#xe92a;" glyph-name="Daily-Pass" d="M466 786c-3.6-3.6-4-6.6-4-29v-25l-349-1-13.4-6.6c-16.2-8-29.6-22-36-38l-4.6-11.4v-512l5.4-11.6c7.4-15.6 15.6-25.8 27.2-33 20.4-13.2-6.2-12.4 420.4-12.4s400-0.8 420.4 12.4c11.6 7.2 19.8 17.4 27.2 33l5.4 11.6v512l-4.6 11.4c-6.4 16-19.8 30-36 38l-13.4 6.6-349 1v25c0 35 3.2 33-50 33-39.4 0-42.2-0.2-46-4zM541.6 700v-68h-59.2v136h59.2v-68zM462 699v-13h-22.2c-26 0-32.8-2.4-41.2-14.4-4.8-7.2-5.6-10.2-5.6-22.6 0-12.2 0.8-15.4 5.4-22.6 10-15 6-14.6 113.6-14.6 107.2 0 103.6-0.4 113.4 14.4 12.2 18.6 5.8 48-12.6 56.8-4.6 2.2-12.8 3-28.6 3h-22.2v26h167.6c192.6 0 182.4 0.8 199.4-16.6 6.2-6.4 11-13.6 12.6-18.6 1.8-6.4 2.4-66.4 2.4-259 0-248-0.2-251-4.2-259.8-5.4-12-12.8-19.6-24.8-25.2l-10-4.8h-393c-391 0-393 0.2-402 4.2-12 5.4-19.6 12.8-25.2 24.8l-4.8 10v250.8c0 189.8 0.6 252.6 2.4 258.8 3.6 12.2 18.4 27 31.6 31.4 10.4 3.6 19.6 3.8 179.6 4h168.4v-13zM462 649v-17h-20.6c-22.2 0-25.2 1.2-28.4 11.6-1.6 5.6 2.2 17.8 6.6 20.4 1.8 1 12.2 2 23 2h19.4v-17zM604 664c4.6-2.4 8.8-14.6 7-20.4-3.2-10.4-6.2-11.6-28.4-11.6h-20.6v34h19.2c10.4 0 20.8-0.8 22.8-2zM262.2 588.8c-32.2-8.6-54.4-33-60.6-66.8-6.4-34 14-70.6 48-86.6 12-5.6 15.4-6.4 31.4-6.4 21.6 0 34.6 4 49.2 15 27.6 20.8 40 56.4 30.6 88.2-12.8 42.8-56.4 68-98.6 56.6zM309.6 563.8c14-7 21-14.2 28-29.6 13.4-29.2 1.2-63-28-78-11.4-5.8-15.4-6.8-27.2-6.8-23.2 0-43.8 12.4-54.8 33.2-3.8 7-4.6 11.6-4.6 27.4 0 22 3 29.4 17.4 43.4 12.6 12.2 23.4 16.6 41.8 16.6 13 0 17-0.8 27.4-6.2zM486 504.2c-2.8-5.6-2.6-7.6 2-12.2 4-4 6.6-4 194.2-4 127.2 0 191.4 0.6 194 2 4.4 2.4 5.2 11.8 1.4 15.6-1.8 1.8-48 2.4-196 2.4-189.2 0-193.6 0-195.6-3.8zM486.8 423.8c-3.4-3.8-3.4-4.6-0.6-9.4l3-5.4 192.6-0.6c140.8-0.2 193.4 0.2 195.4 1.8 3.4 2.8 3.6 12.2 0.4 15.4-1.8 1.8-47.8 2.4-194.6 2.4-192 0-192.4 0-196.2-4.2zM208 418.8c-23.8-6.4-44.2-23.4-55.6-46.6l-7.4-15-0.6-52.4-0.6-52.6 4.8-3.2c4.4-2.8 19.2-3 136.2-2.6 127.6 0.6 131.6 0.8 134.4 4.4 2.2 3.2 2.8 12.8 2.8 46 0 61.6-4.6 77.8-28 100-12.8 12.2-22.8 18-39.4 22.2-16.4 4.2-130.4 4.2-146.6-0.2zM358.6 396.2c14-5.4 28.6-19.2 35.4-33.2 4.8-9.6 5-12 5.6-52.4l0.6-42.6h-236.4l0.6 41.6c0.6 39.8 0.8 41.8 5.8 52.4 9.4 19.8 28.2 34.2 49.2 38 5.4 1 36.2 1.6 68.6 1.2 56-0.4 59.6-0.6 70.6-5zM487.2 343.6c-4.2-5.8-4-8.2 0.4-12.2 3.4-3.2 19.8-3.4 195.6-3.4 146.6 0 192.6 0.6 194.4 2.4 3 3 3 12.2 0 15.2-1.8 1.8-47.8 2.4-194.8 2.4h-192.6l-3-4.4zM488 264c-4.8-4.8-5-7.8-1.2-13.2 2.8-3.8 7.4-3.8 193.4-4.4 168.6-0.4 191-0.2 195.2 2.6 5.8 4 6.4 14 0.8 17-2.6 1.4-66.8 2-194 2-187.6 0-190.2 0-194.2-4z" />
<glyph unicode="&#xe92b;" glyph-name="Permanent-Pass" d="M274.4 956c-7.8-4.8-13.2-16.2-11.6-24.6 0.6-3.2 10.4-20.6 21.6-38.6 22.4-35.8 26.4-39.6 37.6-33.8 12.2 6.2 11 12.8-8 43-8.8 14-16 26-16 26.8 0 0.6 18.2 1 40.4 0.8l40.4-0.6 37.4-60 37.4-60.2-6.8-13.8c-4.8-10-7.2-18-8.2-27.6l-1.2-13.6-32 1.2-21.6 35c-12 19.2-23.4 36.2-25.2 37.6-8.8 6.4-22.6-1.2-22.6-12.2 0-3.4 6.8-16.6 18-34.6 10-15.8 18-29.4 18-29.8 0-0.6-1.4-1-3-1-4 0-18.2-7.2-26.4-13.4-8.2-6.4-19.6-23.4-22.8-34l-2.4-8.6h-132.4c-147 0-141.4 0.4-159.8-13.6-6.6-4.8-12.4-11.8-17-20.4l-7.2-13v-662l4.8-10.4c5.8-13.2 22.2-28.6 35.2-33.8 9.8-3.8 20.6-3.8 471-3.8s461.2 0 471 3.8c13 5.2 29.4 20.6 35.2 33.8l4.8 10.4v662l-7.2 13c-4.6 8.6-10.4 15.6-17 20.4-17.2 13.2-20.2 13.6-90 13.6-61.8 0-62.6 0-66.8-4.4-5-5.4-5.2-13.8-0.2-19.8l3.8-4.8 62.8-1c60.8-1 62.8-1.2 70-5.6 4.2-2.6 9-8 11.4-13.2l4.2-8.6-0.4-324-0.6-324.2-6-7.6c-3.4-4-9.2-9-13-11-6.6-3.6-22.6-3.8-462-3.8s-455.4 0.2-462 3.8c-3.8 2-9.6 7-13 11l-6 7.6-0.6 324.2-0.4 324 4.2 8.8c2.8 5.8 7 10.4 12.6 13.6l8.6 5h261.6l3.4-9.6c7.6-21.4 30.8-41.8 52.4-46.4 7.2-1.4 53.6-2 145.4-1.6l134.8 0.6 9.8 4.6c19.4 8.8 36.2 27 41.6 44.6l2.2 7.6 43.8 0.6c43.4 0.6 44 0.6 47.8 5.4 5 6 4.8 15.2-0.2 20.2-3.8 3.8-6.6 4-47.8 4h-43.6l-2.6 9c-3 10.6-12.8 25.2-22.2 33-8 6.4-22.4 14-26.8 14-1.6 0-3 0.4-3 1s24.4 40 54 87.8c29.8 47.8 54.6 89.4 55.2 92.6 1.6 8.4-3.8 19.8-11.6 24.6-6.2 3.8-10 4-57.2 4-55 0-59-0.6-68.6-11.2-3-3.2-21.4-31.4-40.8-62.8s-35.8-57.4-36.2-57.8c-0.4-0.4-4.4 0.8-9 2.6-16.8 6.8-31.6 6.2-56.8-1.8-3.4-1-8.6 6.2-39 55.4-19.2 31-37.6 59.6-41 63.4-10.2 11.6-13.4 12.2-69.4 12.2-47.2 0-51-0.2-57.2-4zM725.4 927.6c-0.6-1.4-24.8-40.8-54-87.6l-52.8-85-32.6-1.2v6.6c0 10.2-5.6 29.6-11.2 39.2l-5 8.4 36.4 58.6c20 32 37.2 59.6 38.4 61 1.4 1.8 12.2 2.4 41.8 2.4 31.2 0 39.8-0.6 39-2.4zM524.2 803.8c18.8-5.8 30-22.2 31.2-45.8 0.8-17.2 4.4-25.8 12.6-30.6 4.6-2.8 11.2-3.4 37.4-3.4 39.4 0 48.6-2.2 60-14.6 9.8-10.6 13.4-20.6 12.2-33.6-1.4-14.6-10.2-27.4-23.4-34.2l-10.6-5.6h-263.2l-10.6 5.6c-27.4 14.2-31.8 49.8-8.6 70.2 11.8 10.4 20.6 12.2 57.8 12.2 25.4 0 32.4 0.6 37 3.2 8.6 5.2 12 12.8 12 27.2 0 17.8 3.2 27 12.6 37 12.4 13 27.2 17.2 43.6 12.4zM502 768c-6-6-5.4-16.6 1.2-21.8 3-2.4 6.8-4.2 8.8-4.2s5.8 1.8 8.8 4.2c10.4 8.2 4.6 25.8-8.8 25.8-3.4 0-7.8-1.8-10-4zM418 690c-5.4-5.4-5.2-16.2 0.2-21.2 4-3.6 8.6-3.8 93.8-3.8s89.8 0.2 93.8 3.8c5.4 5 5.6 15.8 0.2 21.2-3.8 3.8-6.6 4-94 4s-90.2-0.2-94-4zM116.4 534c-15-3.6-29.2-19.2-31.4-34.8-0.6-4.4-1-103.6-0.6-220.2 0.6-232.6-0.4-215.2 13.4-229.6 13.2-13.8 5.8-13.4 209-13.4 102.2 0 185.6 0.8 190 2 11 2.4 23 11.6 28 21 4.2 7.8 4.2 10.6 4.8 142 0.2 73.8 0 136-0.6 138.4-1.6 6.6-11.4 11.2-18.2 8.6-11-4.2-10.6 1.4-10.8-141 0-72.6-0.8-133-1.6-134.2-3-4.6-10.4-6.8-22.2-6.8-7 0-12.2 0.8-12.2 2s-4.6 27.8-10 59.2c-11.2 63.2-14 71.2-28.4 83.6-10.8 9.4-24 13.2-45 13.2-11.2 0-16.6 0.8-16.6 2.2s5.2 7.6 11.6 13.8c12.6 12.6 22.2 28.6 27.2 45.8 4.4 14.8 4.4 66.6 0.2 83.2-13.2 50.2-64.8 83.2-113.8 72.6-27.8-6.2-49.4-20.6-64-42.6-12.4-18.6-15.6-30.2-16.6-62.2-1.8-48 5-70.4 28.6-94.6 7-7.2 12.8-14.2 12.8-15.6 0-2-4.4-2.6-16.4-2.6-20.2 0-28.4-2.2-40.8-10.6-17.8-11.8-19.8-17.4-32-85.8-5.8-33.4-10.8-60.8-10.8-61 0-0.4-5.8-0.6-13-0.6-11.4 0-13.8 0.6-18 5l-5 4.8v420.4l9.8 9.8 185.4-0.4c180.6-0.6 185.2-0.6 188-4.4 2.2-3.2 2.8-14 2.8-54.4 0-27.8 0.6-52 1.2-53.8 2-4.8 12-9.2 17.8-7.8 10.6 2.6 11 5.4 11 62 0 33.6-0.8 54.6-2.2 59-3.6 10.2-11 19.4-20.4 24.4l-8.4 4.4-188 0.4c-103.4 0-191-0.4-194.6-1.4zM335 407.2c14.4-6.6 27.8-19.4 34.4-33 5.4-11 5.6-12 5.6-46.2s-0.2-35.2-5.6-46.4c-25.6-52-98.2-52-123.8 0l-6.6 13.4v66l6.6 13.4c9.2 18.8 26 32.6 45.8 37.6 11.8 2.8 31.6 0.8 43.6-4.8zM313 212.6c7.8 0.6 15.6 1.6 17.6 2.4 3 1.2 3.4-0.2 3.4-14.4 0-18.4-4-26.8-16.2-33.4-13.8-7.4-32.2 1.6-35.8 17.8-2 8.8-2.6 27.8-1 29.4 0.8 0.6 5 0.2 9.6-0.8s14.8-1.6 22.4-1zM250.8 190.8c0.6-1.8 1.2-5.6 1.2-8.4 0-9.2 9-25.2 19-34 33.8-29.8 86-9.2 92.2 36.4l1.4 9.2h16.2c18.8 0 27.8-4 32-14.6 1.6-3.4 6.4-28 11-54.4s8.8-50.4 9.4-53.4l1.2-5.6h-252.4v4.6c0 7.4 17.6 105 19.8 108.8 2.2 4.4 10.2 11.8 14.2 13.2 1.6 0.6 9.8 1.2 18.2 1.2 12.2 0.2 15.6-0.4 16.6-3zM592.8 493.6c-4.4-2-8.8-9.4-8.8-14.8 0-1.6 2.2-5.2 5-7.8l4.8-5h338l4 5.2c6.8 8.6 5.2 17.2-4 21.8-4.8 2.6-29.4 3-170.2 2.8-109 0-166-0.8-168.8-2.2zM594.8 382c-5.2-2-10.8-9.6-10.8-14.2 0-1.8 1.8-5.6 4.2-8.6l4-5.2h339.6l4 5.2c2.4 3 4.2 6.6 4.2 8 0 5.8-5 12.8-10.6 14.8-7.4 2.4-328.2 2.6-334.6 0zM588.2 264.8c-5.4-7-5.2-11.4 0.6-18.2l4.8-5.6h87.2c87 0 87 0 91.4 4.4 5.4 5.4 5.8 15 0.8 20.6-3.6 3.8-6 4-92.2 4h-88.6l-4-5.2zM708.6 160.2c-54-18.6-57-93.2-4.6-118l11-5.2h86c78 0 87 0.4 96.4 3.6 14 4.8 29 18.6 36 33 4.8 9.6 5.6 13.8 5.6 27.4-0.2 14.4-0.8 17.4-7 28.8-4.4 8.2-10.4 15.6-16.6 20.4-17 13.4-19.8 13.8-113.2 13.8-74.6-0.2-84.2-0.6-93.6-3.8zM892 129.4c10-5.2 18-18 18-28.2 0-7.6-6-21-11.6-25.8-9.6-8.6-15.8-9.2-94.4-9.4-45.8 0-78 0.8-82.4 2-29.2 8.2-34.6 46.8-8.6 61.4 8 4.4 8.6 4.6 89.2 4.6 81 0 81.2 0 89.8-4.6z" />
<glyph unicode="&#xe92c;" glyph-name="walk-check-out" d="M182 870.8c-37-10-68.4-36-84.2-69.8-12.6-26.8-12-5-11.4-358.2l0.6-321.8 5.2-13.4c15.2-39.2 45.2-68.2 82.8-80.2 13.4-4.2 17.4-4.4 81-4.4s67.6 0.2 81 4.4c38.4 12.2 71 44.6 83.4 82.6 2.4 7.6 4.6 20.6 5 31.2 1 15.4 0.4 19.2-3 26-16.8 32.8-59.8 33-76.6 0.4-2-4.2-3.8-10.2-3.8-13.6 0-21.2-14.2-41-32.4-45.6-12.6-3.2-94.6-3.2-107.2 0-12.8 3.2-26.8 17.2-30 30-3.4 13.4-3.4 605.8 0 619.2 3.2 12.8 17.2 26.8 30 30 5.8 1.4 26.4 2.4 53.6 2.4 53.2 0 59.4-1.2 72-14 9.6-9.4 14-20.4 14-34 0-3.4 1.8-9.4 3.8-13.6 14.2-27.6 49.6-32.6 69.6-9.8 8.8 10.2 11.2 19 10 38.2-3 49.4-35.4 91.8-85 111-13.4 5.2-13.6 5.2-80.4 5.6-54.4 0.4-69-0.2-78-2.6zM780.4 871.2c-16.4-4.2-42.2-17.8-54.8-29.2-15.6-14-30.2-36.4-36.8-56.6-4.2-13-5.2-20.6-5.4-36.4-0.2-24.2 2.6-36.8 13-58.8 10.8-22.8 33.6-46 55.6-56.8 15.8-7.8 32.8-13.2 43-13.6 3.6 0-0.2-1.6-9.4-3.6-20.2-4.6-45.8-17.4-60-30.2-15.4-13.6-30.2-36.4-37-56.6l-5.6-16.4v-460l4.4-8c8-15.2 21-23 37.6-23 17 0 32 9.6 39.2 25 3.4 7.4 3.8 14.6 3.8 97.6v89.4h86v-90.6c0-90.4 0-90.8 4.6-99.2 2.4-4.8 8.4-11.4 13.2-15 7.8-5.6 9.8-6.2 24-6.2 13.6 0 16.4 0.6 23.4 5.4 4.2 3 10 8.8 12.8 13l5 7.4v466.2l-4.4 14c-14.2 44.6-52 78-99.6 87.8l-12 2.4 11 1.6c25.4 3.4 56.4 20.6 75 41.6 11 12.6 23.8 37.6 28.2 55.4 4.4 17.6 3 50.4-2.8 68.2-12.2 37-41.8 67.4-80 81.6-11 4-17.8 5.2-37.4 5.6-15.6 0.4-27.8-0.2-34.6-2zM468.8 614.2c-13.6-6.2-24.8-23.4-24.8-38.2 0-14.2 4.4-20.6 35.4-52.2 16.8-17 30.6-31.6 30.6-32.4s-40-1.4-89-1.4c-76 0-90.2-0.4-96.6-3-33.8-14.2-33.8-63.8 0-78 6.4-2.6 20.6-3 96.6-3 49 0 89-0.6 89-1.4s-13.8-15.4-30.6-32.4c-31-31.6-35.4-38-35.4-52.2 0-14.8 11.2-32 24.8-38.2 10.6-4.8 26-4.8 36.2 0 5.2 2.4 27.6 23.6 64.4 60.6 61.6 61.8 64.6 66 69.2 92.8 2.8 15.8 0 33.6-7.4 50.2-4.6 9.6-14.4 20.6-61.8 68.2-36.8 37-59.2 58.2-64.4 60.6-10.2 4.8-25.6 4.8-36.2 0z" />
<glyph unicode="&#xe92d;" glyph-name="check-in" horiz-adv-x="1071" d="M266.005 956.234c-14.124-4.943-90.159-41.902-153.011-74.387-44.020-22.834-52.73-28.484-67.090-42.137-18.361-17.655-29.19-34.133-38.606-58.144l-6.12-15.772-0.706-304.846c-0.471-196.326 0.235-316.145 1.648-336.39 2.354-28.954 3.296-32.956 10.829-48.493 11.299-22.599 27.071-41.666 47.080-56.967 18.832-14.36 50.141-26.6 155.13-60.969l63.323-20.48 21.892 2.589c16.949 1.883 25.188 4.237 36.252 10.122 19.774 10.593 40.489 33.192 47.316 51.553l5.179 14.124h116.995c64.5 0 128.059 1.177 141.477 2.354 21.657 2.354 27.071 3.766 46.61 13.183 17.891 8.71 25.659 14.36 40.018 28.954 20.245 20.009 35.781 47.787 40.254 70.621 1.177 6.827 2.354 42.137 2.354 78.389v65.677l-7.062 10.358c-8.71 12.476-19.538 19.538-33.427 21.422-18.832 2.589-38.606-7.062-48.964-23.776-4.708-7.768-5.179-12.241-6.827-72.504-2.119-70.856-2.589-73.681-17.655-85.216-5.414-4.237-12.947-6.827-23.069-8.239-8.239-1.177-68.031-2.354-133.002-2.354h-118.407v677.959l263.18-1.177 9.181-7.297c17.891-14.595 18.126-15.772 19.774-85.686 0.942-34.369 2.354-64.5 3.531-67.090 3.531-9.181 11.77-18.126 21.657-24.011 8.71-5.179 12.241-5.885 26.13-4.943 18.361 0.942 28.719 7.062 39.312 23.069l5.885 8.945-0.706 72.504c-0.706 72.504-0.706 72.739-6.827 87.57-16.478 39.077-40.254 65.442-73.681 81.685-14.83 7.297-26.6 11.299-37.9 12.947-8.945 1.177-74.152 2.354-144.772 2.354h-128.294l-7.768 15.066c-20.951 40.489-71.562 62.852-111.11 49.434zM289.78 654.683c0.235-292.84-0.471-616.048-1.412-617.225-1.412-1.412-163.605 53.436-169.49 57.203-3.060 2.119-8.474 7.533-12.006 12.241-6.12 8.004-6.591 10.358-8.71 43.079-0.942 18.832-1.648 161.486-1.177 316.851 0.942 322.266-1.648 290.251 23.54 307.2 14.124 9.416 162.428 84.745 166.9 84.745 1.177 0 2.119-87.099 2.354-204.094zM619.814 598.187c-2.825-0.471-13.889-8.71-24.717-18.126-29.19-25.659-97.221-95.573-101.929-104.989-6.827-12.947-5.885-32.956 2.119-44.491 11.064-15.772 105.46-109.697 117.466-116.76 9.651-5.414 13.183-6.356 22.834-5.179 21.892 2.589 37.9 15.066 44.491 34.369 5.65 16.949 1.883 31.073-13.889 49.434l-9.181 11.299 32.015 1.412c17.655 0.942 103.812 1.648 191.382 1.648h159.367l9.651 7.062c5.414 3.766 11.535 9.651 13.653 12.947 5.65 8.71 8.004 24.717 5.885 38.841-2.119 13.653-11.77 25.423-26.6 33.192-8.474 4.237-16.243 4.473-197.503 4.473h-188.793l6.356 7.768c19.068 23.305 23.54 37.194 17.891 54.613-8.004 24.246-33.192 37.9-60.498 32.486z" />
<glyph unicode="&#xe92e;" glyph-name="check-out" horiz-adv-x="1071" d="M266.005 956.234c-14.124-4.943-90.159-41.902-153.011-74.387-44.020-22.834-52.73-28.484-67.090-42.137-18.361-17.655-29.19-34.133-38.606-58.144l-6.12-15.772-0.706-304.846c-0.471-196.326 0.235-316.145 1.648-336.39 2.354-28.954 3.296-32.956 10.829-48.493 11.299-22.599 27.071-41.666 47.080-56.967 18.832-14.36 50.141-26.6 155.13-60.969l63.323-20.48 21.892 2.589c16.949 1.883 25.188 4.237 36.252 10.122 19.774 10.593 40.489 33.192 47.316 51.553l5.179 14.124h116.995c64.5 0 128.059 1.177 141.477 2.354 21.657 2.354 27.071 3.766 46.61 13.183 17.891 8.71 25.659 14.36 40.018 28.954 20.245 20.009 35.781 47.787 40.254 70.621 1.177 6.827 2.354 42.137 2.354 78.389v65.677l-7.062 10.358c-8.71 12.476-19.538 19.538-33.427 21.422-18.832 2.589-38.606-7.062-48.964-23.776-4.708-7.768-5.179-12.241-6.827-72.504-2.119-70.856-2.589-73.681-17.655-85.216-5.414-4.237-12.947-6.827-23.069-8.239-8.239-1.177-68.031-2.354-133.002-2.354h-118.407v677.959l263.18-1.177 9.181-7.297c17.891-14.595 18.126-15.772 19.774-85.686 0.942-34.369 2.354-64.5 3.531-67.090 3.531-9.181 11.77-18.126 21.657-24.011 8.71-5.179 12.241-5.885 26.13-4.943 18.361 0.942 28.719 7.062 39.312 23.069l5.885 8.945-0.706 72.504c-0.706 72.504-0.706 72.739-6.827 87.57-16.478 39.077-40.254 65.442-73.681 81.685-14.83 7.297-26.6 11.299-37.9 12.947-8.945 1.177-74.152 2.354-144.772 2.354h-128.294l-7.768 15.066c-20.951 40.489-71.562 62.852-111.11 49.434zM289.78 654.683c0.235-292.84-0.471-616.048-1.412-617.225-1.412-1.412-163.605 53.436-169.49 57.203-3.060 2.119-8.474 7.533-12.006 12.241-6.12 8.004-6.591 10.358-8.71 43.079-0.942 18.832-1.648 161.486-1.177 316.851 0.942 322.266-1.648 290.251 23.54 307.2 14.124 9.416 162.428 84.745 166.9 84.745 1.177 0 2.119-87.099 2.354-204.094zM908.417 597.48c-17.655-5.179-32.721-27.071-32.721-46.845 0-11.535 4.708-21.186 18.361-37.664l8.004-9.651h-188.793c-181.024 0-188.793-0.235-197.267-4.473-10.829-5.65-22.834-17.891-26.13-26.836-1.412-3.766-2.589-10.593-2.589-15.537 0-18.126 2.825-24.482 15.772-37.194l12.712-12.476h181.966c100.046 0 186.909-0.706 192.794-1.412l10.829-1.648-8.945-10.829c-14.124-16.714-17.42-24.953-16.243-39.548 2.119-23.776 21.422-42.137 47.080-44.726 11.064-0.942 13.653-0.235 23.069 5.885 14.124 9.651 113.699 110.168 118.643 120.055 5.179 10.358 5.179 28.248 0 39.548-5.885 12.712-109.227 115.583-121.938 121.232-10.122 4.473-24.011 5.414-34.604 2.119z" />
<glyph unicode="&#xe92f;" glyph-name="Permanent-pass-print" d="M307 861.2c-7.4-3.2-14-10.4-16.8-17.8-1.4-3.4-2.2-25.4-2.2-56.6v-50.8h-69.6c-56 0-71.8-0.6-81.4-3-34.4-9-61-35.8-70-70.4-4.4-17.2-4.4-348 0-365.2 9-34.6 35.6-61.4 70-70.4 9.6-2.4 25.4-3 81.4-3h69.4l0.6-85.8c0.6-83.2 0.8-86 4.8-91.4 2.2-3 6.6-7.4 9.6-9.6 5.4-4.2 6.6-4.2 209.2-4.2s203.8 0 209.2 4.2c3 2.2 7.4 6.6 9.6 9.6 4 5.4 4.2 8.2 4.8 91.4l0.6 85.8h69.4c56 0 71.8 0.6 81.4 3 34.4 9 61 35.8 70 70.4 4.4 17.2 4.4 348 0 365.2-9 34.6-35.6 61.4-70 70.4-9.6 2.4-25.4 3-81.4 3h-69.4l-0.6 53.8c-0.6 50.8-0.8 54.2-4.8 59.4-2.2 3-6.6 7.4-9.6 9.6-5.4 4.2-7 4.2-206.8 4.6-164.8 0.4-202.4 0-207.4-2.2zM672 704v-96h-320v192h320v-96zM192 650.4c0-34.6 7.6-55.8 27.4-76.6 5.8-6.2 16-14.2 22.4-17.6 24-12.8 11.6-12.2 270.2-12.2s246.2-0.6 270.2 12.2c6.4 3.4 16.6 11.4 22.4 17.6 19.8 20.8 27.4 42 27.4 76.8v21.8l21.8-0.8c23.6-0.6 28.2-2.4 37-14.4 4.2-5.4 4.2-6.8 4.2-177.2s0-171.8-4.2-177.2c-2.2-3-6.6-7.4-9.6-9.6-5.2-4-8.4-4.2-75.4-4.8l-69.8-0.6v127.8l21.8 0.8c18.4 0.4 22.8 1.2 27.4 4.8 10.6 7.8 13.8 14.2 13.8 26.8s-3.2 19-13.8 26.8c-5.4 4.2-6 4.2-273.2 4.2s-267.8 0-273.2-4.2c-10.6-7.8-13.8-14.2-13.8-26.8s3.2-19 13.8-26.8c4.6-3.6 9-4.4 27.4-4.8l21.8-0.8v-127.8l-69.8 0.6c-67 0.6-70.2 0.8-75.4 4.8-3 2.2-7.4 6.6-9.6 9.6-4.2 5.4-4.2 7.4-4.8 171.8-0.4 91.6 0 169.2 0.6 172.8 1.4 8 9.8 18.2 18 21.8 3.6 1.6 13.8 2.6 25.6 2.8h19.4v-21.6zM288 639.8v-32.2l-6.4 1.2c-7.8 1.4-14.8 6.2-20.4 14-3.6 4.6-4.4 9-4.8 27.4l-0.8 21.8h32.4v-32.2zM767.6 650.2c-0.4-18.4-1.2-22.8-4.8-27.4-5.6-7.8-12.6-12.6-20.2-14l-6.6-1.2v64.4h32.4l-0.8-21.8zM672 256v-160h-320v320h320v-160zM403 381.2c-13.4-5.8-21-21.2-18.2-36.2 1.8-9.4 11.8-20.4 20.8-23 5-1.6 41.8-2 110.8-1.6 100.8 0.6 103.4 0.8 108.8 4.8 10.6 7.8 13.8 14.2 13.8 26.8s-3.2 19-13.8 26.8c-5.4 4.2-8 4.2-110.8 4.6-84.6 0.4-106.6 0-111.4-2.2zM403 285.2c-13.4-5.8-21-21.2-18.2-36.2 1.8-9.4 11.8-20.4 20.8-23 5-1.6 41.8-2 110.8-1.6 100.8 0.6 103.4 0.8 108.8 4.8 10.6 7.8 13.8 14.2 13.8 26.8s-3.2 19-13.8 26.8c-5.4 4.2-8 4.2-110.8 4.6-84.6 0.4-106.6 0-111.4-2.2zM403 189.2c-13.4-5.8-21-21.2-18.2-36.2 1.8-9.4 11.8-20.4 20.8-23 5-1.6 41.8-2 110.8-1.6 100.8 0.6 103.4 0.8 108.8 4.8 10.6 7.8 13.8 14.2 13.8 26.8s-3.2 19-13.8 26.8c-5.4 4.2-8 4.2-110.8 4.6-84.6 0.4-106.6 0-111.4-2.2z" />
<glyph unicode="&#xe930;" glyph-name="company-account-ledger" d="M132.6 957c-5.8-1.6-14.4-4.8-19-7.2-11.6-5.8-28-21.8-34.2-33.4-10.8-19.8-11.4-26.2-11.4-113.8v-80.6h34v78.6c0 88.6 0.6 93.4 13.4 107.6 4 4.4 11 10 15.4 12.4l8.2 4.4 318 0.6c352.2 0.6 328.2 1.4 344.4-12.6 14.4-12.2 17.2-21.2 18.2-57.4l0.8-31.6h-666.4v-34h101.8l-7-13.2c-3.8-7.2-6.8-14.8-6.8-17 0-3.6-1.8-3.8-44-3.8h-44v-34h120v14c0 22.4 8.2 37 26.4 47.2l10.6 5.8h640l9.4-4.6c11.8-5.8 22.4-17.8 26.4-30 4.6-13.4 4.8-460.2 0.2-475.6-3.8-13-12.6-23.2-25.4-29.6l-10.4-5.2h-405.2v-34l415 1 13 6.2c24 11.6 40.6 31.2 47 55.8 4.4 17.6 4.6 468 0 485.6-4.2 16.2-9.8 26.4-21.2 38.4-21.4 22.6-37.4 27-100.2 27h-45.6v25.6c0 30.8-2.6 47.6-9.2 61.8-6.6 13.8-21.8 30.4-34.2 37.2-22.2 12-3.8 11.4-350.6 11.2-266.6 0-318.6-0.6-327.4-2.8zM154 875v-17h34v34h-34v-17zM222 875v-17h34v34h-34v-17zM290 875v-17h34v34h-34v-17zM324 739v-17h34v34h-34v-17zM393.4 754.6c-0.8-0.6-1.4-8.4-1.4-17v-15.6h34v34h-15.6c-8.6 0-16.4-0.6-17-1.4zM461.4 754.6c-0.8-0.6-1.4-8.4-1.4-17v-15.6h34v34h-15.6c-8.6 0-16.4-0.6-17-1.4zM42.6 681.8c-14-5.4-29-20-36-34.8l-5.6-12v-648l5.6-11.2c6.4-13.4 21.8-28.4 35-34.4l9.4-4.4h410l9.4 4.4c13.2 6 28.6 21 35 34.4l5.6 11.2v648l-6.6 13.4c-7.8 16-20.4 27.8-35.6 33.6-10.8 4-14.6 4-213.4 3.8-197.2 0-202.6-0.2-212.8-4zM463.8 646.2c3.6-2.6 8.4-8.4 10.4-13 3.6-7.8 3.8-20.2 3.8-321.8 0-261.8-0.4-314.6-2.8-320-3.2-7.8-12.2-16.4-19.8-19.2-7.8-3-391-3-398.8 0-7.6 2.8-16.6 11.4-19.8 19.2-2.4 5.4-2.8 58.2-2.8 320 0 301.6 0.2 314 3.8 321.8 3.4 7.6 10.8 14.6 18.2 17.4 1.6 0.6 92.6 1 202 0.8l199-0.4 6.8-4.8zM75.8 581.4c-7.4-5.6-7.8-9.6-7.8-83.4v-72.4l11.6-11.6h352.8l11.6 11.6v72.4c0 73.8-0.4 77.8-7.8 83.4-4.6 3.6-355.8 3.6-360.4 0zM410 499v-51h-308v102h308v-51zM204 499v-17h34v34h-34v-17zM274 499v-17h34v34h-34v-17zM342 499v-17h34v34h-34v-17zM73.8 374.2l-5.8-5.8v-38.4c0-39.8 1.4-47.8 9-50.8 1.8-0.6 21.2-1.2 43.2-1.2 53.6 0 49.8-3.8 49.8 49.8 0 22-0.6 41.4-1.2 43.2-3 7.6-11 9-50.8 9h-38.4l-5.8-5.8zM136 329v-17h-34v34h34v-17zM214.4 378c-9-3.6-10.8-13-10-53 0.6-35.6 0.8-36.8 5.4-41.8l4.8-5.2h82.8l4.8 5.2c4.6 5 4.8 6.2 5.4 41.8 0.8 40.8-1 49.4-10.6 53-6.6 2.4-76.4 2.4-82.6 0zM273.6 328.6l0.6-16.6h-36.2v15.6c0 8.6 0.6 16.4 1.4 17.2s8.6 1 17.6 0.8l16-0.6 0.6-16.4zM351 377.6c-8.6-4.6-9-6.6-9-49 0-54.6-4-50.6 49.8-50.6 22 0 41.4 0.6 43.2 1.2 7.6 3 9 11 9 50.8v38.4l-11.6 11.6h-38.8c-24 0-40.2-1-42.6-2.4zM410 329v-17h-34v34h34v-17zM78.4 241c-3.4-1.6-7.4-5.2-8.4-8-2.6-6.8-2.6-75.2 0-82 3.6-9.6 12.2-11.4 53-10.6 35.6 0.6 36.8 0.8 41.8 5.4l5.2 4.8v82.8l-5.2 4.8c-5 4.6-6 4.8-42.4 5.2-29.2 0.4-38.8 0-44-2.4zM136 192v-18.2l-33 1.2-0.6 14.8c-0.4 8.2-0.2 16 0.4 17.6 0.8 1.8 5.6 2.6 17.2 2.6h16v-18zM214.8 241.2c-9.2-4-10.8-11.2-10.8-49.2 0-38.6 1.4-45.2 11.2-49.2 9.4-4 72.2-4 81.6 0 9.8 4 11.2 10.6 11.2 49.6 0 38.8-1.6 45.6-12 49.4-9.6 3.2-73.2 2.8-81.2-0.6zM273 192v-17h-34l-0.6 14.8c-0.4 8.2-0.2 16 0.4 17.6 0.8 2.2 5 2.6 17.6 2.2l16.6-0.6v-17zM354 242.6c-1.6-0.6-5-3-7.4-5.2l-4.6-4v-108.6c0-59.6 0.6-110 1.2-111.8 3-7.6 11-9 50.8-9h38.4l11.6 11.6v106.2c0 65.4-0.8 108-2 111.2-3.4 9.2-12 11-50.4 10.8-19 0-36-0.6-37.6-1.2zM409.6 123.6l0.4-85.6h-34v172.2l33-1.2 0.6-85.4zM76.4 104.6c-6.8-2.8-8.4-11.8-8.4-50.6v-38.4l11.6-11.6h38.4c39.8 0 47.8 1.4 50.8 9 0.6 1.8 1.2 21.2 1.2 43.2 0 53.8 4 49.8-50.4 49.6-22.4 0-41.8-0.6-43.2-1.2zM136 55v-17h-34v34h34v-17zM209.8 100.8c-4.6-5-4.8-6.2-5.4-41.8-0.8-40.8 1-49.4 10.6-53 6.8-2.6 75.2-2.6 82 0 9.6 3.6 11.4 12.2 10.6 53-0.6 35.6-0.8 36.8-5.4 41.8l-4.8 5.2h-82.8l-4.8-5.2zM273.6 55.6l-0.6-16.6h-34l-0.6 16.6-0.6 16.4h36.4l-0.6-16.4zM546 669v-17h170v-34h-170v-34h170v-34h-170v-34h170v-34h-170v-34h170v-34h-170v-34h170v-68h222v34h-188.2l0.6 16.6 0.6 16.4 93.6 0.6 93.4 0.4v34h-188v34h188v34l-93.4 0.4-93.6 0.6-0.6 16.6-0.6 16.4h188.2v34l-93.4 0.4-93.6 0.6-0.6 16.6-0.6 16.4h188.2v34l-93.4 0.4-93.6 0.6-0.6 16.6-0.6 16.4h188.2v34h-392v-17zM579.4 86.8c-44.8-29.4-44.8-32.2 0.2-62.2l30.6-20.6h312.2l-0.8-12.4c-0.8-10.2-1.8-13-6.4-17l-5.4-4.6h-123.8v-34.2l66.6 0.6c63.6 0.6 66.8 0.8 74.4 5 18.2 9.8 27.2 24.8 28.6 46.8l0.8 15.4 15.4 0.8c9 0.6 18 2.4 22.2 4.4 38.8 19.8 39.6 73 1.6 92l-10.4 5.2h-376.8l-29-19.2zM768 55v-17h-148.2l-13 8.8-12.8 8.6 12.4 8.2 12.6 8.4h149v-17zM922 55v-17h-120v34h120v-17zM984 68c5.6-5.6 7.2-13.8 3.8-19.8-4-7-11-10.2-22.2-10.2h-9.6v34h12c9.2 0 12.8-0.8 16-4z" />
</font>
</defs>
</svg>
